<svg xmlns="http://www.w3.org/2000/svg" viewBox="0 0 1200 780">
  <rect width="1200" height="780" rx="40" fill="#0b1020"/>
  <rect x="60" y="60" width="1080" height="660" rx="28" fill="#111827" stroke="#60a5fa"/>
  <text x="110" y="150" fill="#fff" font-size="48" font-family="Segoe UI, Arial" font-weight="700">Algorithm Visualizer (C++)</text>
  <text x="110" y="205" fill="#93c5fd" font-size="24" font-family="Segoe UI, Arial">C++ • CMake • Data Structures • Performance</text>
  <rect x="110" y="265" width="980" height="350" rx="26" fill="#0f172a" stroke="#818cf8"/>
  <rect x="170" y="470" width="82" height="92" rx="16" fill="#38bdf8"/>
  <rect x="286" y="420" width="82" height="142" rx="16" fill="#22c55e"/>
  <rect x="402" y="368" width="82" height="194" rx="16" fill="#f59e0b"/>
  <rect x="518" y="322" width="82" height="240" rx="16" fill="#f97316"/>
  <rect x="634" y="280" width="82" height="282" rx="16" fill="#a78bfa"/>
  <rect x="750" y="355" width="82" height="207" rx="16" fill="#60a5fa"/>
  <rect x="866" y="435" width="82" height="127" rx="16" fill="#34d399"/>
  <path d="M211 255 L327 255 L443 255 L559 255 L675 255 L791 255 L907 255" stroke="#334155" stroke-width="8" stroke-dasharray="14 16"/>
  <circle cx="211" cy="255" r="16" fill="#38bdf8"/><circle cx="327" cy="255" r="16" fill="#22c55e"/><circle cx="443" cy="255" r="16" fill="#f59e0b"/><circle cx="559" cy="255" r="16" fill="#f97316"/><circle cx="675" cy="255" r="16" fill="#a78bfa"/><circle cx="791" cy="255" r="16" fill="#60a5fa"/><circle cx="907" cy="255" r="16" fill="#34d399"/>
  <text x="110" y="665" fill="#e5e7eb" font-size="30" font-family="Segoe UI, Arial">Sorting states • benchmark-friendly rendering • systems-focused algorithm demos</text>
</svg>
