<svg xmlns="http://www.w3.org/2000/svg" viewBox="0 0 1200 780">
  <rect width="1200" height="780" rx="40" fill="#0b1020"/>
  <rect x="60" y="60" width="1080" height="660" rx="28" fill="#111827" stroke="#38bdf8"/>
  <text x="110" y="150" fill="#fff" font-size="48" font-family="Segoe UI, Arial" font-weight="700">Anxiety Attack Detection System</text>
  <text x="110" y="205" fill="#93c5fd" font-size="24" font-family="Segoe UI, Arial">Python • Healthcare • Detection • Alerts</text>
  <rect x="110" y="270" width="980" height="320" rx="24" fill="#0f172a" stroke="#a78bfa"/>
  <polyline points="150,430 220,430 260,350 305,510 360,300 420,470 490,430 560,430 640,360 710,500 780,335 850,430 930,430 1000,395 1050,430" fill="none" stroke="#22c55e" stroke-width="10" stroke-linecap="round" stroke-linejoin="round"/>
  <circle cx="845" cy="235" r="56" fill="none" stroke="#ef4444" stroke-width="12"/>
  <text x="826" y="248" fill="#ef4444" font-size="42" font-family="Segoe UI, Arial" font-weight="700">!</text>
  <rect x="180" y="315" width="170" height="60" rx="18" fill="#172033" stroke="#38bdf8"/><text x="220" y="353" fill="#fff" font-size="26" font-family="Segoe UI, Arial">Signals</text>
  <rect x="390" y="315" width="170" height="60" rx="18" fill="#172033" stroke="#8b5cf6"/><text x="434" y="353" fill="#fff" font-size="26" font-family="Segoe UI, Arial">Alerts</text>
  <rect x="600" y="315" width="190" height="60" rx="18" fill="#172033" stroke="#22c55e"/><text x="637" y="353" fill="#fff" font-size="26" font-family="Segoe UI, Arial">Healthcare</text>
  <text x="110" y="665" fill="#e5e7eb" font-size="30" font-family="Segoe UI, Arial">Realtime detection • symptom monitoring • alert-oriented health insights</text>
</svg>
