<svg xmlns="http://www.w3.org/2000/svg" viewBox="0 0 1200 780">
  <rect width="1200" height="780" rx="40" fill="#0b1020"/>
  <rect x="60" y="60" width="1080" height="660" rx="28" fill="#111827" stroke="#f59e0b"/>
  <text x="110" y="150" fill="#fff" font-size="48" font-family="Segoe UI, Arial" font-weight="700">Catering Reservation And Ordering System</text>
  <text x="110" y="205" fill="#93c5fd" font-size="24" font-family="Segoe UI, Arial">Full-Stack • Ordering • Reservations • Scheduling</text>
  <rect x="110" y="270" width="980" height="320" rx="24" fill="#0f172a" stroke="#60a5fa"/>
  <rect x="170" y="320" width="240" height="210" rx="24" fill="#172033" stroke="#22c55e"/>
  <rect x="220" y="370" width="140" height="18" rx="9" fill="#e5e7eb"/><rect x="220" y="410" width="100" height="18" rx="9" fill="#cbd5e1"/><rect x="220" y="450" width="120" height="18" rx="9" fill="#94a3b8"/>
  <rect x="485" y="320" width="230" height="210" rx="24" fill="#172033" stroke="#f59e0b"/>
  <rect x="535" y="370" width="130" height="40" rx="12" fill="#eab308"/><rect x="535" y="430" width="130" height="40" rx="12" fill="#22c55e"/>
  <rect x="790" y="320" width="240" height="210" rx="24" fill="#172033" stroke="#a78bfa"/>
  <rect x="850" y="360" width="120" height="120" rx="20" fill="#0f172a"/><line x1="850" y1="410" x2="970" y2="410" stroke="#475569" stroke-width="6"/><line x1="910" y1="360" x2="910" y2="480" stroke="#475569" stroke-width="6"/>
  <text x="110" y="665" fill="#e5e7eb" font-size="30" font-family="Segoe UI, Arial">Order flow • schedule blocks • reservation-friendly catering interface</text>
</svg>
