<svg xmlns="http://www.w3.org/2000/svg" viewBox="0 0 1200 780">
  <rect width="1200" height="780" rx="40" fill="#0b1020"/>
  <rect x="60" y="60" width="1080" height="660" rx="28" fill="#111827" stroke="#a78bfa"/>
  <text x="110" y="150" fill="#fff" font-size="48" font-family="Segoe UI, Arial" font-weight="700">Client Segmentation &amp; Analytics</text>
  <text x="110" y="205" fill="#93c5fd" font-size="24" font-family="Segoe UI, Arial">Clustering • Analytics • Segments • Business Insight</text>
  <rect x="110" y="270" width="980" height="320" rx="24" fill="#0f172a" stroke="#60a5fa"/>
  <circle cx="270" cy="360" r="18" fill="#60a5fa"/><circle cx="315" cy="405" r="18" fill="#60a5fa"/><circle cx="355" cy="350" r="18" fill="#60a5fa"/><circle cx="310" cy="315" r="18" fill="#60a5fa"/>
  <circle cx="560" cy="420" r="18" fill="#22c55e"/><circle cx="610" cy="465" r="18" fill="#22c55e"/><circle cx="640" cy="410" r="18" fill="#22c55e"/><circle cx="585" cy="375" r="18" fill="#22c55e"/>
  <circle cx="850" cy="330" r="18" fill="#f59e0b"/><circle cx="900" cy="380" r="18" fill="#f59e0b"/><circle cx="950" cy="330" r="18" fill="#f59e0b"/><circle cx="900" cy="285" r="18" fill="#f59e0b"/>
  <rect x="190" y="495" width="160" height="50" rx="18" fill="#172033" stroke="#60a5fa"/><text x="226" y="528" fill="#fff" font-size="24" font-family="Segoe UI, Arial">Cluster A</text>
  <rect x="515" y="495" width="160" height="50" rx="18" fill="#172033" stroke="#22c55e"/><text x="551" y="528" fill="#fff" font-size="24" font-family="Segoe UI, Arial">Cluster B</text>
  <rect x="820" y="495" width="160" height="50" rx="18" fill="#172033" stroke="#f59e0b"/><text x="856" y="528" fill="#fff" font-size="24" font-family="Segoe UI, Arial">Cluster C</text>
  <text x="110" y="665" fill="#e5e7eb" font-size="30" font-family="Segoe UI, Arial">User grouping • segment analytics • cluster-driven customer insight</text>
</svg>
