<svg xmlns="http://www.w3.org/2000/svg" viewBox="0 0 1200 780">
  <rect width="1200" height="780" rx="40" fill="#0b1020"/>
  <rect x="60" y="60" width="1080" height="660" rx="28" fill="#111827" stroke="#ef4444"/>
  <text x="110" y="150" fill="#fff" font-size="48" font-family="Segoe UI, Arial" font-weight="700">Corporate Bankruptcy Prediction System</text>
  <text x="110" y="205" fill="#93c5fd" font-size="24" font-family="Segoe UI, Arial">Python • Jupyter • Forecasting • Corporate Risk</text>
  <rect x="110" y="270" width="980" height="320" rx="24" fill="#0f172a" stroke="#8b5cf6"/>
  <polyline points="170,335 310,360 450,390 590,430 730,460 870,505 1010,540" fill="none" stroke="#ef4444" stroke-width="10" stroke-linecap="round" stroke-linejoin="round"/>
  <circle cx="1010" cy="540" r="14" fill="#ef4444"/>
  <rect x="760" y="320" width="220" height="120" rx="26" fill="#172033" stroke="#ef4444"/>
  <text x="818" y="375" fill="#fff" font-size="32" font-family="Segoe UI, Arial" font-weight="700">High Risk</text>
  <rect x="180" y="470" width="170" height="55" rx="18" fill="#172033" stroke="#38bdf8"/><text x="214" y="506" fill="#fff" font-size="24" font-family="Segoe UI, Arial">Forecasting</text>
  <rect x="380" y="470" width="160" height="55" rx="18" fill="#172033" stroke="#a78bfa"/><text x="439" y="506" fill="#fff" font-size="24" font-family="Segoe UI, Arial">Finance</text>
  <rect x="570" y="470" width="130" height="55" rx="18" fill="#172033" stroke="#f59e0b"/><text x="617" y="506" fill="#fff" font-size="24" font-family="Segoe UI, Arial">ML</text>
  <text x="110" y="665" fill="#e5e7eb" font-size="30" font-family="Segoe UI, Arial">Corporate health scoring • distress forecasting • financial risk analysis</text>
</svg>
