<svg xmlns="http://www.w3.org/2000/svg" viewBox="0 0 1200 780">
  <rect width="1200" height="780" rx="40" fill="#0b1020"/>
  <rect x="60" y="60" width="1080" height="660" rx="28" fill="#111827" stroke="#ef4444"/>
  <text x="110" y="150" fill="#fff" font-size="48" font-family="Segoe UI, Arial" font-weight="700">Credit Card Fraud Detection</text>
  <text x="110" y="205" fill="#93c5fd" font-size="24" font-family="Segoe UI, Arial">Python • Fraud Signals • Transactions • Analytics</text>
  <rect x="110" y="270" width="450" height="310" rx="26" fill="#0f172a" stroke="#60a5fa"/>
  <rect x="170" y="350" width="330" height="190" rx="26" fill="#172033" stroke="#a78bfa"/>
  <rect x="210" y="410" width="120" height="18" rx="9" fill="#e5e7eb"/>
  <rect x="210" y="452" width="180" height="18" rx="9" fill="#cbd5e1"/>
  <circle cx="435" cy="445" r="36" fill="#f59e0b"/>
  <text x="423" y="456" fill="#111827" font-size="32" font-family="Segoe UI, Arial" font-weight="700">$</text>
  <rect x="640" y="270" width="450" height="310" rx="26" fill="#0f172a" stroke="#ef4444"/>
  <polyline points="690,510 750,470 810,500 870,390 930,420 990,335 1040,360" fill="none" stroke="#ef4444" stroke-width="10" stroke-linecap="round" stroke-linejoin="round"/>
  <circle cx="990" cy="335" r="16" fill="#ef4444"/><text x="981" y="343" fill="#fff" font-size="24" font-family="Segoe UI, Arial" font-weight="700">!</text>
  <text x="110" y="665" fill="#e5e7eb" font-size="30" font-family="Segoe UI, Arial">Transaction scoring • anomaly detection • fraud alert monitoring</text>
</svg>
