<svg xmlns="http://www.w3.org/2000/svg" viewBox="0 0 1200 780">
  <rect width="1200" height="780" rx="40" fill="#0b1020"/>
  <rect x="60" y="60" width="1080" height="660" rx="28" fill="#111827" stroke="#a78bfa"/>
  <text x="110" y="150" fill="#fff" font-size="48" font-family="Segoe UI, Arial" font-weight="700">Generative AI For Personalized Healthcare Recommendations</text>
  <text x="110" y="205" fill="#93c5fd" font-size="24" font-family="Segoe UI, Arial">AI • Recommender • Healthcare • Python</text>
  <rect x="110" y="270" width="980" height="320" rx="24" fill="#0f172a" stroke="#22c55e"/>
  <rect x="170" y="330" width="210" height="190" rx="24" fill="#172033" stroke="#60a5fa"/>
  <path d="M255 370 C255 340, 290 340, 290 372 C290 340, 325 340, 325 370 C325 410, 290 438, 290 438 C290 438, 255 410, 255 370 Z" fill="#ef4444"/>
  <rect x="470" y="335" width="240" height="170" rx="24" fill="#172033" stroke="#8b5cf6"/>
  <rect x="520" y="380" width="140" height="30" rx="12" fill="#e5e7eb"/><rect x="520" y="425" width="110" height="30" rx="12" fill="#cbd5e1"/>
  <rect x="800" y="335" width="210" height="170" rx="24" fill="#172033" stroke="#22c55e"/>
  <circle cx="905" cy="390" r="42" fill="#22c55e"/><text x="887" y="402" fill="#0b1020" font-size="34" font-family="Segoe UI, Arial" font-weight="700">AI</text>
  <text x="110" y="665" fill="#e5e7eb" font-size="30" font-family="Segoe UI, Arial">Health profiles • generated suggestions • recommendation-oriented care flow</text>
</svg>
