<svg xmlns="http://www.w3.org/2000/svg" viewBox="0 0 1200 780">
  <rect width="1200" height="780" rx="40" fill="#0b1020"/>
  <rect x="60" y="60" width="1080" height="660" rx="28" fill="#111827" stroke="#eab308"/>
  <text x="110" y="150" fill="#fff" font-size="48" font-family="Segoe UI, Arial" font-weight="700">Gold Price Prediction using Machine Learning</text>
  <text x="110" y="205" fill="#93c5fd" font-size="24" font-family="Segoe UI, Arial">Python • Forecasting • Finance • ML</text>
  <rect x="110" y="270" width="980" height="320" rx="24" fill="#0f172a" stroke="#f59e0b"/>
  <polyline points="150,510 250,455 350,470 450,390 550,365 650,340 750,320 850,280 950,245 1040,215" fill="none" stroke="#eab308" stroke-width="10" stroke-linecap="round" stroke-linejoin="round"/>
  <circle cx="150" cy="510" r="10" fill="#eab308"/><circle cx="450" cy="390" r="10" fill="#eab308"/><circle cx="750" cy="320" r="10" fill="#eab308"/><circle cx="1040" cy="215" r="10" fill="#eab308"/>
  <rect x="170" y="325" width="180" height="52" rx="18" fill="#172033" stroke="#38bdf8"/><text x="212" y="358" fill="#fff" font-size="24" font-family="Segoe UI, Arial">Forecasting</text>
  <rect x="380" y="325" width="160" height="52" rx="18" fill="#172033" stroke="#a78bfa"/><text x="437" y="358" fill="#fff" font-size="24" font-family="Segoe UI, Arial">Finance</text>
  <rect x="568" y="325" width="110" height="52" rx="18" fill="#172033" stroke="#22c55e"/><text x="610" y="358" fill="#fff" font-size="24" font-family="Segoe UI, Arial">ML</text>
  <text x="110" y="665" fill="#e5e7eb" font-size="30" font-family="Segoe UI, Arial">Time-series learning • trend signals • market-facing price prediction</text>
</svg>
