<svg xmlns="http://www.w3.org/2000/svg" viewBox="0 0 1200 780">
  <rect width="1200" height="780" rx="40" fill="#0b1020"/>
  <rect x="60" y="60" width="1080" height="660" rx="28" fill="#111827" stroke="#ef4444"/>
  <text x="110" y="150" fill="#fff" font-size="48" font-family="Segoe UI, Arial" font-weight="700">Heart Disease Prediction</text>
  <text x="110" y="205" fill="#93c5fd" font-size="24" font-family="Segoe UI, Arial">Python • Jupyter • Healthcare • Forecasting</text>
  <rect x="110" y="270" width="980" height="320" rx="24" fill="#0f172a" stroke="#22c55e"/>
  <path d="M170 430 L290 430 L340 330 L395 520 L470 360 L560 430 L690 430 L760 330 L830 500 L905 350 L990 430" fill="none" stroke="#ef4444" stroke-width="10" stroke-linecap="round" stroke-linejoin="round"/>
  <path d="M890 280 C890 240, 940 240, 940 285 C940 240, 990 240, 990 280 C990 340, 940 380, 940 380 C940 380, 890 340, 890 280 Z" fill="#ef4444"/>
  <rect x="190" y="318" width="170" height="52" rx="18" fill="#172033" stroke="#60a5fa"/><text x="238" y="351" fill="#fff" font-size="24" font-family="Segoe UI, Arial">Health</text>
  <rect x="390" y="318" width="170" height="52" rx="18" fill="#172033" stroke="#a78bfa"/><text x="429" y="351" fill="#fff" font-size="24" font-family="Segoe UI, Arial">Signals</text>
  <rect x="590" y="318" width="170" height="52" rx="18" fill="#172033" stroke="#22c55e"/><text x="639" y="351" fill="#fff" font-size="24" font-family="Segoe UI, Arial">Forecast</text>
  <text x="110" y="665" fill="#e5e7eb" font-size="30" font-family="Segoe UI, Arial">ECG-like signals • patient indicators • heart risk prediction workflow</text>
</svg>
