<svg xmlns="http://www.w3.org/2000/svg" viewBox="0 0 1200 780">
  <rect width="1200" height="780" rx="40" fill="#0b1020"/>
  <rect x="60" y="60" width="1080" height="660" rx="28" fill="#111827" stroke="#22c55e"/>
  <text x="110" y="150" fill="#fff" font-size="48" font-family="Segoe UI, Arial" font-weight="700">Point of Sale System for Supermarket</text>
  <text x="110" y="205" fill="#93c5fd" font-size="24" font-family="Segoe UI, Arial">Java • Spring Boot • Billing • Inventory</text>
  <rect x="110" y="270" width="980" height="320" rx="24" fill="#0f172a" stroke="#f59e0b"/>
  <rect x="160" y="330" width="250" height="170" rx="24" fill="#172033" stroke="#60a5fa"/>
  <rect x="198" y="368" width="174" height="86" rx="12" fill="#0b1020"/>
  <rect x="500" y="315" width="180" height="210" rx="24" fill="#172033" stroke="#22c55e"/>
  <rect x="532" y="355" width="116" height="22" rx="8" fill="#e5e7eb"/>
  <rect x="532" y="395" width="116" height="22" rx="8" fill="#cbd5e1"/>
  <rect x="532" y="435" width="90" height="22" rx="8" fill="#94a3b8"/>
  <rect x="770" y="315" width="220" height="210" rx="24" fill="#172033" stroke="#f59e0b"/>
  <rect x="820" y="365" width="120" height="28" rx="12" fill="#22c55e"/>
  <rect x="820" y="410" width="120" height="28" rx="12" fill="#60a5fa"/>
  <rect x="820" y="455" width="120" height="28" rx="12" fill="#f59e0b"/>
  <text x="110" y="665" fill="#e5e7eb" font-size="30" font-family="Segoe UI, Arial">Checkout UI • receipt flow • inventory-aware billing operations</text>
</svg>
