<svg xmlns="http://www.w3.org/2000/svg" viewBox="0 0 1200 780">
  <rect width="1200" height="780" rx="40" fill="#0b1020"/>
  <rect x="60" y="60" width="1080" height="660" rx="28" fill="#111827" stroke="#60a5fa"/>
  <text x="110" y="150" fill="#fff" font-size="48" font-family="Segoe UI, Arial" font-weight="700">Rent It: An Accommodation Website</text>
  <text x="110" y="205" fill="#93c5fd" font-size="24" font-family="Segoe UI, Arial">JavaScript • Listings • Booking • Frontend</text>
  <rect x="110" y="270" width="300" height="280" rx="24" fill="#0f172a" stroke="#38bdf8"/>
  <rect x="185" y="370" width="150" height="115" rx="18" fill="#172033" stroke="#22c55e"/>
  <path d="M170 390 L260 320 L350 390" fill="none" stroke="#60a5fa" stroke-width="14" stroke-linecap="round" stroke-linejoin="round"/>
  <rect x="450" y="270" width="300" height="280" rx="24" fill="#0f172a" stroke="#a78bfa"/>
  <rect x="505" y="325" width="190" height="175" rx="18" fill="#172033" stroke="#475569"/>
  <rect x="535" y="360" width="42" height="42" rx="10" fill="#60a5fa"/><rect x="595" y="360" width="42" height="42" rx="10" fill="#22c55e"/><rect x="655" y="360" width="42" height="42" rx="10" fill="#f59e0b"/>
  <rect x="535" y="420" width="42" height="42" rx="10" fill="#818cf8"/><rect x="595" y="420" width="42" height="42" rx="10" fill="#f97316"/><rect x="655" y="420" width="42" height="42" rx="10" fill="#34d399"/>
  <rect x="790" y="270" width="300" height="280" rx="24" fill="#0f172a" stroke="#f59e0b"/>
  <rect x="848" y="328" width="184" height="46" rx="16" fill="#172033" stroke="#60a5fa"/>
  <rect x="848" y="394" width="184" height="46" rx="16" fill="#172033" stroke="#22c55e"/>
  <rect x="848" y="460" width="184" height="46" rx="16" fill="#172033" stroke="#f59e0b"/>
  <text x="110" y="665" fill="#e5e7eb" font-size="30" font-family="Segoe UI, Arial">Listings • booking calendar • rental browsing and reservation flows</text>
</svg>
