<svg xmlns="http://www.w3.org/2000/svg" viewBox="0 0 1200 780">
  <rect width="1200" height="780" rx="40" fill="#0b1020"/>
  <rect x="60" y="60" width="1080" height="660" rx="28" fill="#111827" stroke="#60a5fa"/>
  <text x="110" y="150" fill="#fff" font-size="48" font-family="Segoe UI, Arial" font-weight="700">Sorting Algo Visualizer</text>
  <text x="110" y="205" fill="#93c5fd" font-size="24" font-family="Segoe UI, Arial">Python • Sorting • Systems • Visualization</text>
  <rect x="110" y="270" width="980" height="320" rx="24" fill="#0f172a" stroke="#818cf8"/>
  <rect x="170" y="430" width="82" height="120" rx="16" fill="#60a5fa"/>
  <rect x="286" y="360" width="82" height="190" rx="16" fill="#f59e0b"/>
  <rect x="402" y="470" width="82" height="80" rx="16" fill="#34d399"/>
  <rect x="518" y="320" width="82" height="230" rx="16" fill="#a78bfa"/>
  <rect x="634" y="395" width="82" height="155" rx="16" fill="#38bdf8"/>
  <rect x="750" y="285" width="82" height="265" rx="16" fill="#f97316"/>
  <rect x="866" y="340" width="82" height="210" rx="16" fill="#22c55e"/>
  <path d="M170 245 C300 190, 430 300, 560 245 C690 190, 820 300, 948 245" fill="none" stroke="#cbd5e1" stroke-width="8" stroke-dasharray="14 14"/>
  <text x="110" y="665" fill="#e5e7eb" font-size="30" font-family="Segoe UI, Arial">Sorting passes • step-by-step ordering • algorithm state visualization</text>
</svg>
