<svg xmlns="http://www.w3.org/2000/svg" viewBox="0 0 1200 780">
  <rect width="1200" height="780" rx="40" fill="#0b1020"/>
  <rect x="60" y="60" width="1080" height="660" rx="28" fill="#111827" stroke="#8b5cf6"/>
  <text x="110" y="150" fill="#fff" font-size="48" font-family="Segoe UI, Arial" font-weight="700">Virtualartguide Using QR</text>
  <text x="110" y="205" fill="#93c5fd" font-size="24" font-family="Segoe UI, Arial">Python • QR • Guide System • Full-Stack</text>
  <rect x="110" y="270" width="320" height="320" rx="24" fill="#0f172a" stroke="#60a5fa"/>
  <rect x="165" y="325" width="210" height="210" rx="16" fill="#e5e7eb"/>
  <rect x="190" y="350" width="55" height="55" fill="#111827"/><rect x="295" y="350" width="55" height="55" fill="#111827"/><rect x="190" y="455" width="55" height="55" fill="#111827"/>
  <rect x="255" y="350" width="25" height="25" fill="#111827"/><rect x="255" y="385" width="25" height="25" fill="#111827"/><rect x="280" y="420" width="25" height="25" fill="#111827"/><rect x="315" y="455" width="25" height="25" fill="#111827"/>
  <rect x="490" y="270" width="600" height="320" rx="24" fill="#0f172a" stroke="#22c55e"/>
  <rect x="560" y="335" width="220" height="180" rx="20" fill="#172033" stroke="#a78bfa"/>
  <path d="M590 470 L650 390 L710 470 Z" fill="#60a5fa" opacity="0.9"/>
  <circle cx="690" cy="380" r="18" fill="#f59e0b"/>
  <rect x="830" y="352" width="180" height="42" rx="14" fill="#172033" stroke="#60a5fa"/>
  <rect x="830" y="418" width="180" height="42" rx="14" fill="#172033" stroke="#22c55e"/>
  <text x="110" y="665" fill="#e5e7eb" font-size="30" font-family="Segoe UI, Arial">QR access • exhibit guidance • image-led visitor browsing flow</text>
</svg>
