<?xml version="1.0" encoding="UTF-8"?>
<svg version="1.1" xmlns="http://www.w3.org/2000/svg" width="249" height="281">
<path d="M0 0 C3.27373884 0.16982972 6.22848213 0.00193336 9.4765625 -0.37890625 C26.13389683 -2.06460187 43.98350445 3.46509991 57.2265625 13.62109375 C58.66863462 14.80303728 60.10645197 15.99019961 61.5390625 17.18359375 C62.13332031 17.6321875 62.72757813 18.08078125 63.33984375 18.54296875 C82.4000025 33.44056409 88.83538739 59.59212991 95.46875 81.56640625 C99.25395444 93.85258872 103.48702436 103.20284296 111.5390625 113.18359375 C118.46046322 122.99253901 121.49063242 132.76185845 120.1875 144.80859375 C118.76569614 152.20882591 115.99462855 159.22541145 112.7265625 165.99609375 C110.9500667 170.76458247 110.49173324 175.3175153 112.265625 180.171875 C114.68590629 184.76647403 117.92269346 187.87540923 122.5390625 190.18359375 C122.2265625 192.05859375 122.2265625 192.05859375 121.5390625 194.18359375 C118.5390625 196.18359375 118.5390625 196.18359375 115.5390625 196.18359375 C116.1990625 197.25609375 116.8590625 198.32859375 117.5390625 199.43359375 C120.54167252 205.48170822 120.76629832 212.14093457 118.80859375 218.58984375 C116.87644224 222.81691807 114.56138477 225.70831851 110.5390625 228.18359375 C109.5490625 228.18359375 108.5590625 228.18359375 107.5390625 228.18359375 C107.5390625 226.53359375 107.5390625 224.88359375 107.5390625 223.18359375 C104.89084415 226.77760437 103.16358846 230.03103969 101.6640625 234.24609375 C99.80475809 239.12584919 97.88243057 241.31881907 93.5390625 244.18359375 C90.06581069 245.34134435 87.17838802 245.25226027 83.5390625 245.18359375 C83.62285156 244.55710938 83.70664063 243.930625 83.79296875 243.28515625 C83.89480469 242.46789062 83.99664062 241.650625 84.1015625 240.80859375 C84.20597656 239.99648437 84.31039062 239.184375 84.41796875 238.34765625 C84.72143578 236.13460189 84.72143578 236.13460189 83.5390625 234.18359375 C82.53327661 235.47076022 81.53459452 236.76348033 80.5390625 238.05859375 C79.9821875 238.77789062 79.4253125 239.4971875 78.8515625 240.23828125 C77.35262873 242.06880225 77.35262873 242.06880225 77.5390625 244.18359375 C78.84230469 244.54710937 78.84230469 244.54710937 80.171875 244.91796875 C91.61814862 248.24686264 91.61814862 248.24686264 96.5390625 252.18359375 C80.94039067 269.42222374 44.51935059 278.10909362 22.32052612 279.30290222 C19.77074127 279.38098859 17.22267179 279.42621676 14.671875 279.45703125 C13.72798416 279.46960464 12.78409332 279.48217804 11.81159973 279.49513245 C-27.29279618 279.91519156 -27.29279618 279.91519156 -46.4609375 274.18359375 C-47.37472168 273.92126953 -48.28850586 273.65894531 -49.22998047 273.38867188 C-64.36649314 268.96932948 -79.36854321 263.09756433 -92.4609375 254.18359375 C-91.4609375 251.18359375 -91.4609375 251.18359375 -89.17578125 249.796875 C-87.80099609 249.15298828 -87.80099609 249.15298828 -86.3984375 248.49609375 C-85.47933594 248.05910156 -84.56023437 247.62210938 -83.61328125 247.171875 C-82.90300781 246.84574219 -82.19273438 246.51960937 -81.4609375 246.18359375 C-82.1209375 244.53359375 -82.7809375 242.88359375 -83.4609375 241.18359375 C-84.4509375 241.51359375 -85.4409375 241.84359375 -86.4609375 242.18359375 C-93.11495319 242.7345632 -98.6344094 242.60351242 -104.4609375 239.18359375 C-104.7909375 238.19359375 -105.1209375 237.20359375 -105.4609375 236.18359375 C-104.006875 235.59578125 -104.006875 235.59578125 -102.5234375 234.99609375 C-99.23917359 233.50764488 -99.23917359 233.50764488 -98.5859375 230.49609375 C-98.5446875 229.73296875 -98.5034375 228.96984375 -98.4609375 228.18359375 C-100.85575421 226.06510205 -102.09474637 225.21543646 -105.3359375 224.93359375 C-109.95521792 223.82496645 -111.94068682 221.08491059 -114.4609375 217.18359375 C-117.15398187 210.86079393 -116.81338964 204.76658264 -114.4140625 198.41015625 C-113.94226563 197.30800781 -113.94226563 197.30800781 -113.4609375 196.18359375 C-114.43546875 195.58611328 -114.43546875 195.58611328 -115.4296875 194.9765625 C-116.265 194.44675781 -117.1003125 193.91695312 -117.9609375 193.37109375 C-119.21390625 192.58798828 -119.21390625 192.58798828 -120.4921875 191.7890625 C-121.141875 191.25925781 -121.7915625 190.72945312 -122.4609375 190.18359375 C-122.4609375 189.19359375 -122.4609375 188.20359375 -122.4609375 187.18359375 C-121.3678125 186.95671875 -120.2746875 186.72984375 -119.1484375 186.49609375 C-115.44893191 185.50493933 -115.44893191 185.50493933 -113.5234375 183.05859375 C-111.11264774 176.53528027 -112.61972608 170.90347666 -114.9609375 164.62109375 C-118.64825925 153.69017616 -119.30950871 143.18460452 -114.28125 132.5390625 C-111.52013987 127.44937666 -108.6449854 122.42594833 -105.6472168 117.47167969 C-97.8981513 104.55058598 -93.63017185 91.52236136 -89.93188477 77.05737305 C-83.34035946 51.47423556 -72.01412012 25.48152214 -48.60351562 11.03759766 C-33.2619829 2.21196768 -17.61756025 -1.52786122 0 0 Z M-54.42578125 236.01171875 C-55.40224609 236.71554688 -55.40224609 236.71554688 -56.3984375 237.43359375 C-59.34594318 239.45552756 -62.0557859 241.01307289 -65.4609375 242.18359375 C-65.4609375 242.51359375 -65.4609375 242.84359375 -65.4609375 243.18359375 C-58.23969537 242.76529009 -51.41525972 242.22898264 -44.4609375 240.18359375 C-48.99777985 236.10184445 -48.99777985 236.10184445 -54.42578125 236.01171875 Z M50.5390625 237.18359375 C50.5390625 238.17359375 50.5390625 239.16359375 50.5390625 240.18359375 C52.5190625 240.67859375 52.5190625 240.67859375 54.5390625 241.18359375 C53.2190625 239.86359375 51.8990625 238.54359375 50.5390625 237.18359375 Z " fill="#0D0C0B" transform="translate(124.4609375,1.81640625)"/>
<path d="M0 0 C2.64 0 5.28 0 8 0 C11.67904959 6.46828254 12.53388215 12.27682846 12.82421875 19.66796875 C12.99210232 22.85029505 13.41584085 25.87023674 14 29 C14.66 29 15.32 29 16 29 C15.835 28.34 15.67 27.68 15.5 27 C14.87816701 23.26900206 14.93591074 19.78126622 15 16 C15.433125 16.639375 15.86625 17.27875 16.3125 17.9375 C17.91239177 20.26746003 17.91239177 20.26746003 21 21 C22.03013277 22.64821244 23.03114628 24.31503702 24 26 C32.21650174 30.10825087 46.12818361 25.50155282 54.8125 24 C57.33254629 23.56886013 59.85294559 23.14013568 62.37419128 22.71606445 C63.93314273 22.45341389 65.49139099 22.18654315 67.04878235 21.91479492 C70.73863633 21.28884716 74.25511016 20.84528673 78 21 C78.1139478 27.06921975 77.8036091 32.76601788 76.8125 38.75 C76.6794043 39.55711426 76.54630859 40.36422852 76.40917969 41.19580078 C72.91484925 61.579395 68.9803309 77.85887843 54 93 C53.41347656 93.63550781 52.82695312 94.27101563 52.22265625 94.92578125 C47.73103035 99.69218897 42.61372332 103.62355581 37 107 C36.34 107 35.68 107 35 107 C34.67 105.68 34.34 104.36 34 103 C33.731875 103.65226562 33.46375 104.30453125 33.1875 104.9765625 C29.81232574 112.50408931 26.18744607 116.90107952 18.4609375 120.02734375 C11.63834025 122.16063424 5.09901959 122.49782746 -2 122 C-2.74378906 121.97679687 -3.48757812 121.95359375 -4.25390625 121.9296875 C-8.13878163 121.45833276 -9.64279437 120.40709124 -12.265625 117.41796875 C-14.2849196 114.66791544 -16.18431998 111.88770386 -18 109 C-17.34 111.31 -16.68 113.62 -16 116 C-20.09189762 114.63603413 -20.61547327 112.65151017 -22.6875 108.9375 C-23.31011719 107.83277344 -23.93273437 106.72804688 -24.57421875 105.58984375 C-25.04472656 104.73519531 -25.51523438 103.88054687 -26 103 C-26 104.65 -26 106.3 -26 108 C-36.5979636 106.32532179 -49.09847482 92.7134634 -55.23632812 84.30664062 C-64.118597 71.00578114 -67.27619817 55.57878765 -69.625 40 C-69.7590625 39.16210938 -69.893125 38.32421875 -70.03125 37.4609375 C-70.8731884 31.91101702 -71.12448526 26.61315355 -71 21 C-67.56188146 21.43272152 -64.1245396 21.87129137 -60.6875 22.3125 C-59.13071533 22.5122644 -59.13071533 22.5122644 -57.54248047 22.71606445 C-50.12768351 23.68328579 -42.74475614 24.77988407 -35.3815918 26.08520508 C-26.05948867 27.68239936 -26.05948867 27.68239936 -17.0625 25.6875 C-14.78127739 23.98902321 -14.78127739 23.98902321 -13 21 C-12.01 21 -11.02 21 -10 21 C-9.75507812 20.34644531 -9.51015625 19.69289062 -9.2578125 19.01953125 C-7.64417702 15.14580385 -5.76833217 11.43067791 -3.875 7.6875 C-3.50246094 6.94693359 -3.12992187 6.20636719 -2.74609375 5.44335938 C-1.83255194 3.62798783 -0.91652513 1.81386718 0 0 Z " fill="#5B311F" transform="translate(123,128)"/>
<path d="M0 0 C2.64 0 5.28 0 8 0 C11.67904959 6.46828254 12.53388215 12.27682846 12.82421875 19.66796875 C12.99210232 22.85029505 13.41584085 25.87023674 14 29 C14.66 29 15.32 29 16 29 C15.835 28.34 15.67 27.68 15.5 27 C14.87816701 23.26900206 14.93591074 19.78126622 15 16 C15.433125 16.639375 15.86625 17.27875 16.3125 17.9375 C17.91239177 20.26746003 17.91239177 20.26746003 21 21 C22.03013277 22.64821244 23.03114628 24.31503702 24 26 C32.21650174 30.10825087 46.12818361 25.50155282 54.8125 24 C57.33254629 23.56886013 59.85294559 23.14013568 62.37419128 22.71606445 C63.93314273 22.45341389 65.49139099 22.18654315 67.04878235 21.91479492 C70.73863633 21.28884716 74.25511016 20.84528673 78 21 C78.69061811 34.35195016 75.13571167 46.75166311 68 58 C65.77734375 59.89453125 65.77734375 59.89453125 64 61 C63.67 60.34 63.34 59.68 63 59 C62.59007812 59.5775 62.18015625 60.155 61.7578125 60.75 C61.21898437 61.4925 60.68015625 62.235 60.125 63 C59.59132812 63.7425 59.05765625 64.485 58.5078125 65.25 C58.01023438 65.8275 57.51265625 66.405 57 67 C56.34 67 55.68 67 55 67 C55 66.34 55 65.68 55 65 C54.34 65 53.68 65 53 65 C52.4225 64.0925 51.845 63.185 51.25 62.25 C48.07955888 57.67047394 44.45883818 55.07353775 39 54 C31.29928476 53.16564187 24.32454676 54.63528502 16.92700195 56.5769043 C13.19787603 57.54710799 9.86093919 58.24225501 6 58 C8.7320519 53.76972609 8.7320519 53.76972609 11 52 C13.46826525 51.61027391 15.62351949 51.67682035 18.109375 51.88671875 C18.73328125 51.92410156 19.3571875 51.96148437 20 52 C21.25949049 50.96593327 21.25949049 50.96593327 21.09765625 48.71484375 C21.08605469 47.79832031 21.07445312 46.88179687 21.0625 45.9375 C21.05347656 45.01839844 21.04445313 44.09929687 21.03515625 43.15234375 C21.02355469 42.44207031 21.01195312 41.73179687 21 41 C19.79438816 41.98267859 19.79438816 41.98267859 19.90234375 43.84765625 C19.91394531 44.57855469 19.92554688 45.30945313 19.9375 46.0625 C19.958125 47.361875 19.97875 48.66125 20 50 C17.46739788 50.77926219 15.55921323 50.99118426 12.875 50.9375 C9.86760888 50.67134345 9.86760888 50.67134345 8 53 C5.94140625 53.265625 5.94140625 53.265625 3.5625 53.25 C2.38880859 53.25773437 2.38880859 53.25773437 1.19140625 53.265625 C-1 53 -1 53 -4 51 C-6.28648848 50.75892674 -6.28648848 50.75892674 -8.6875 50.875 C-9.49574219 50.89304688 -10.30398437 50.91109375 -11.13671875 50.9296875 C-11.75160156 50.95289063 -12.36648437 50.97609375 -13 51 C-13.495 47.535 -13.495 47.535 -14 44 C-14.33 44.33 -14.66 44.66 -15 45 C-14.71269945 47.33944736 -14.38063221 49.6739143 -14 52 C-13.00419922 51.89558594 -13.00419922 51.89558594 -11.98828125 51.7890625 C-4.86194648 51.35211935 -4.86194648 51.35211935 -2.22265625 53.3359375 C-0.875 55 -0.875 55 1 58 C-4.04180825 57.54983855 -8.93332174 56.84639778 -13.90039062 55.85522461 C-27.78136622 52.95290564 -27.78136622 52.95290564 -41 57 C-42.96800036 58.86855353 -44.37562649 60.78904717 -46 63 C-47.31543863 64.35099103 -48.64175118 65.69205669 -50 67 C-53.82946843 65.54744301 -55.12050295 63.57104439 -57 60 C-57.66 60.66 -58.32 61.32 -59 62 C-59.94511946 60.65114018 -60.8806672 59.29557262 -61.8125 57.9375 C-62.33457031 57.18339844 -62.85664062 56.42929688 -63.39453125 55.65234375 C-66.75893242 50.09412381 -68.55765563 44.48423335 -69.6875 38.125 C-69.81705078 37.46886719 -69.94660156 36.81273437 -70.08007812 36.13671875 C-71.01885694 31.04049089 -71.10642102 26.17915642 -71 21 C-67.56188146 21.43272152 -64.1245396 21.87129137 -60.6875 22.3125 C-59.13071533 22.5122644 -59.13071533 22.5122644 -57.54248047 22.71606445 C-50.12768351 23.68328579 -42.74475614 24.77988407 -35.3815918 26.08520508 C-26.05948867 27.68239936 -26.05948867 27.68239936 -17.0625 25.6875 C-14.78127739 23.98902321 -14.78127739 23.98902321 -13 21 C-12.01 21 -11.02 21 -10 21 C-9.75507812 20.34644531 -9.51015625 19.69289062 -9.2578125 19.01953125 C-7.64417702 15.14580385 -5.76833217 11.43067791 -3.875 7.6875 C-3.50246094 6.94693359 -3.12992187 6.20636719 -2.74609375 5.44335938 C-1.83255194 3.62798783 -0.91652513 1.81386718 0 0 Z " fill="#FCC997" transform="translate(123,128)"/>
<path d="M0 0 C0.81557373 0.51731689 1.63114746 1.03463379 2.47143555 1.56762695 C8.86483582 5.49169463 15.05129368 8.6269439 22.26953125 10.73046875 C22.96851532 10.93721222 23.66749939 11.14395569 24.38766479 11.35696411 C27.24739808 12.18996404 30.10980416 13.00314373 32.9909668 13.7590332 C42.03906164 16.17138369 47.9471286 18.40892921 53.09640503 26.78543091 C54.09033921 28.50884639 55.04538185 30.2545 56 32 C57.28852264 34.12741879 58.57883618 36.2537541 59.87109375 38.37890625 C61.06543133 40.43690163 62.2542875 42.49808836 63.4375 44.5625 C64.04787109 45.61501953 64.65824219 46.66753906 65.28710938 47.75195312 C70.03637012 55.96759824 70.03637012 55.96759824 72 60 C67.59347316 60.56887539 63.63159148 61.07806755 59.80078125 58.546875 C58.51971444 57.34886361 57.27561623 56.1094107 56.08203125 54.82421875 C50.59956073 50.02062825 44.86680934 49.47404087 37.875 49.5625 C37.04548828 49.56934814 36.21597656 49.57619629 35.36132812 49.58325195 C28.31330912 49.76517588 21.27303063 50.5359372 15 54 C14.56840576 54.84304687 14.13681152 55.68609375 13.69213867 56.5546875 C12 59 12 59 9.45629883 59.56762695 C8.46654053 59.54144287 7.47678223 59.51525879 6.45703125 59.48828125 C5.38388672 59.47216797 4.31074219 59.45605469 3.20507812 59.43945312 C1.52575195 59.37661133 1.52575195 59.37661133 -0.1875 59.3125 C-1.31865234 59.28994141 -2.44980469 59.26738281 -3.61523438 59.24414062 C-6.41147976 59.18514811 -9.20508097 59.1028824 -12 59 C-12.42273193 57.80467651 -12.42273193 57.80467651 -12.85400391 56.58520508 C-13.77562672 53.82546115 -13.77562672 53.82546115 -16.3359375 52.63671875 C-23.40800999 50.42783236 -29.92325134 49.59634585 -37.3125 49.5 C-38.56522705 49.47232544 -38.56522705 49.47232544 -39.84326172 49.4440918 C-47.26488227 49.51855868 -52.46811991 51.68359906 -57.9375 56.6875 C-58.618125 57.450625 -59.29875 58.21375 -60 59 C-61 60 -61 60 -63.28515625 60.09765625 C-64.65994141 60.08025391 -64.65994141 60.08025391 -66.0625 60.0625 C-66.98160156 60.05347656 -67.90070313 60.04445312 -68.84765625 60.03515625 C-69.55792969 60.02355469 -70.26820312 60.01195312 -71 60 C-65.99869747 46.97716553 -58.68457888 33.14277401 -49 23 C-48.2997168 22.1963501 -47.59943359 21.3927002 -46.87792969 20.56469727 C-43.54212843 17.59196294 -40.32012453 16.35609557 -36.13671875 15.0625 C-35.3859053 14.81508057 -34.63509186 14.56766113 -33.86152649 14.31274414 C-31.47457441 13.5274853 -29.08196384 12.76201753 -26.6875 12 C-12.29146919 8.01767387 -12.29146919 8.01767387 0 0 Z " fill="#FDCA97" transform="translate(126,51)"/>
<path d="M0 0 C10.15610864 7.53939788 17.32872147 15.74967091 23.42578125 26.80078125 C24.01746094 27.85910156 24.60914063 28.91742188 25.21875 30.0078125 C34.27151012 47.80259726 39.39511144 68.32390824 43.42578125 87.80078125 C40.97569088 85.60538612 39.76142369 83.68301403 38.55859375 80.6328125 C38.22988281 79.82134766 37.90117187 79.00988281 37.5625 78.17382812 C36.89575086 76.48636071 36.22908226 74.79886147 35.5625 73.11132812 C33.33932061 67.62258369 30.74073922 62.71009239 27.42578125 57.80078125 C27.64234375 58.66058594 27.85890625 59.52039063 28.08203125 60.40625 C30.04434595 68.73700269 30.81059821 76.22078827 30.42578125 84.80078125 C23.67578125 83.92578125 23.67578125 83.92578125 21.42578125 82.80078125 C23.81535394 86.04377276 25.63056815 88.30980467 29.42578125 89.80078125 C28.10578125 89.80078125 26.78578125 89.80078125 25.42578125 89.80078125 C25.09578125 90.46078125 24.76578125 91.12078125 24.42578125 91.80078125 C19.87906749 86.81790019 16.56448494 81.87752145 13.42578125 75.92578125 C10.38967491 70.30801761 7.31121725 64.85239764 3.65234375 59.609375 C2.45556413 57.84469676 1.43583069 56.05217391 0.42578125 54.17578125 C-7.52336845 40.76159113 -20.51993371 32.71583011 -34.57421875 26.80078125 C-35.56421875 26.80078125 -36.55421875 26.80078125 -37.57421875 26.80078125 C-36.64480469 27.16429687 -35.71539062 27.5278125 -34.7578125 27.90234375 C-27.81125179 30.69935213 -21.94664154 33.42835846 -16.57421875 38.80078125 C-17.06921875 39.79078125 -17.06921875 39.79078125 -17.57421875 40.80078125 C-18.41726562 40.29546875 -19.2603125 39.79015625 -20.12890625 39.26953125 C-21.22460938 38.61984375 -22.3203125 37.97015625 -23.44921875 37.30078125 C-24.53976563 36.65109375 -25.6303125 36.00140625 -26.75390625 35.33203125 C-29.33229547 33.64173272 -29.33229547 33.64173272 -31.57421875 33.80078125 C-30.71957031 34.35507812 -29.86492187 34.909375 -28.984375 35.48046875 C-27.86832902 36.21199468 -26.75245235 36.94377896 -25.63671875 37.67578125 C-24.53457031 38.39507812 -23.43242187 39.114375 -22.296875 39.85546875 C-19.57421875 41.80078125 -19.57421875 41.80078125 -18.57421875 43.80078125 C-24.20748675 43.27675632 -28.92344133 42.22196434 -34.13671875 40.05078125 C-34.78785645 39.78346191 -35.43899414 39.51614258 -36.10986328 39.24072266 C-47.50478236 34.42012546 -47.50478236 34.42012546 -49.3828125 29.8203125 C-49.44597656 29.15386719 -49.50914063 28.48742188 -49.57421875 27.80078125 C-45.86803615 23.49359606 -43.49475061 21.79283444 -37.94921875 21.23828125 C-37.13195312 21.15449219 -36.3146875 21.07070313 -35.47265625 20.984375 C-34.84617188 20.92378906 -34.2196875 20.86320312 -33.57421875 20.80078125 C-37.5294553 18.04410123 -40.79845536 17.26899335 -45.57421875 16.80078125 C-45.57421875 16.14078125 -45.57421875 15.48078125 -45.57421875 14.80078125 C-41.18170042 12.78022282 -37.42080952 11.3918289 -32.57421875 10.80078125 C-35.09897337 9.53840394 -36.88622341 9.70221721 -39.69921875 9.73828125 C-40.60929688 9.74730469 -41.519375 9.75632812 -42.45703125 9.765625 C-43.50503906 9.78302734 -43.50503906 9.78302734 -44.57421875 9.80078125 C-41.23923692 5.28874701 -39.24998623 3.00142437 -33.57421875 1.80078125 C-30.57946016 1.38347882 -27.58701697 1.05519532 -24.57421875 0.80078125 C-29.15613649 -1.56407952 -33.53477989 -1.60501626 -38.57421875 -1.19921875 C-39.56421875 -0.86921875 -40.55421875 -0.53921875 -41.57421875 -0.19921875 C-40.20438372 -3.36037651 -39.58515495 -4.19192795 -36.57421875 -6.19921875 C-38.88421875 -6.19921875 -41.19421875 -6.19921875 -43.57421875 -6.19921875 C-33.02269745 -17.88126018 -10.98323711 -7.14371893 0 0 Z " fill="#633421" transform="translate(176.57421875,18.19921875)"/>
<path d="M0 0 C0.99 1.485 0.99 1.485 2 3 C1.319375 2.835 0.63875 2.67 -0.0625 2.5 C-4.58177712 1.73076134 -8.62962405 1.54320802 -13 3 C-12.22914062 3.12117187 -11.45828125 3.24234375 -10.6640625 3.3671875 C-9.66117187 3.53476563 -8.65828125 3.70234375 -7.625 3.875 C-6.12839844 4.11863281 -6.12839844 4.11863281 -4.6015625 4.3671875 C-2 5 -2 5 0 7 C-0.66 7.33 -1.32 7.66 -2 8 C-0.68 9.65 0.64 11.3 2 13 C1.67 13.66 1.34 14.32 1 15 C0.44828125 14.67515625 -0.1034375 14.3503125 -0.671875 14.015625 C-7.27700493 11.13419248 -15.36185603 12.99603201 -22 15 C-21.0821875 15.09796875 -20.164375 15.1959375 -19.21875 15.296875 C-12.0029039 16.17611675 -6.17633043 17.08040569 0 21 C0.99 22.485 0.99 22.485 2 24 C1.26394531 24.02578125 0.52789062 24.0515625 -0.23046875 24.078125 C-7.91941156 24.49060043 -7.91941156 24.49060043 -14 29 C-13.01 28.67 -12.02 28.34 -11 28 C-9.10529184 27.9314505 -7.2083166 27.91519628 -5.3125 27.9375 C-4.31863281 27.94652344 -3.32476562 27.95554687 -2.30078125 27.96484375 C-1.16189453 27.98224609 -1.16189453 27.98224609 0 28 C0.495 28.99 0.495 28.99 1 30 C-2.465 30.495 -2.465 30.495 -6 31 C-3.69 31.66 -1.38 32.32 1 33 C1 33.33 1 33.66 1 34 C0.20078125 34.14695313 -0.5984375 34.29390625 -1.421875 34.4453125 C-22.20073764 38.68888304 -39.14671753 52.74107547 -51.10546875 70.046875 C-55.13362213 76.43582233 -58.73281175 83.05373319 -62.12353516 89.79980469 C-64.31563218 94.06758361 -66.84446315 97.43026488 -70 101 C-70.99 100.67 -71.98 100.34 -73 100 C-71.02 97.69 -69.04 95.38 -67 93 C-68.65 93 -70.3 93 -72 93 C-71.278125 92.505 -70.55625 92.01 -69.8125 91.5 C-66.34111489 88.41432434 -64.2836532 85.00368136 -62 81 C-62.86625 81.680625 -62.86625 81.680625 -63.75 82.375 C-67.60495474 85.15913398 -70.16172241 86.39229278 -75 86 C-76 85 -76 85 -76.01953125 83.20703125 C-75.35273518 75.49484278 -73.28159874 68.36478848 -71 61 C-77.24722749 68.77580443 -79.97321006 77.65129773 -83 87 C-83.33 87 -83.66 87 -84 87 C-83.55724973 79.17553402 -82.23187424 72.00552721 -80 64.5 C-79.69239746 63.46262695 -79.38479492 62.42525391 -79.06787109 61.35644531 C-74.4772995 46.46847518 -68.23812221 32.8556694 -58 21 C-57.17628906 20.02740234 -57.17628906 20.02740234 -56.3359375 19.03515625 C-44.67806323 6.37229282 -16.98217427 -11.18338305 0 0 Z " fill="#643421" transform="translate(121,10)"/>
<path d="M0 0 C1.35854582 4.07563747 -0.11026394 6.62711702 -1.625 10.4375 C-1.89844238 11.15180176 -2.17188477 11.86610352 -2.45361328 12.60205078 C-4.12454709 16.92790201 -5.96285507 21.14959928 -7.875 25.375 C-10.72106373 32.18160549 -11.39150168 38.19656532 -8.5625 45.125 C-7.11191667 48.08923549 -5.46458709 50.90840655 -3.765625 53.734375 C0.83793079 61.46605894 4.4946195 67.66158387 4 77 C5.70656894 72.98331946 6.48898407 69.34363544 7 65 C10.82440382 66.50244436 12.83472958 68.52010111 15 72 C15.40668335 75.72793067 15.23203344 78.33290387 14 81.875 C12.40621291 86.85558466 12.00072691 91.79108054 14.1875 96.625 C15.23833207 98.00195236 16.29082292 99.37764831 17.34765625 100.75 C17.81042969 101.36875 18.27320313 101.9875 18.75 102.625 C19.42289063 103.47964844 19.42289063 103.47964844 20.109375 104.3515625 C20.40328125 104.89554687 20.6971875 105.43953125 21 106 C20.505 107.485 20.505 107.485 20 109 C17.22095282 107.59904093 14.45346747 106.17658629 11.6875 104.75 C10.90181641 104.35425781 10.11613281 103.95851563 9.30664062 103.55078125 C1.87586001 99.6930994 1.87586001 99.6930994 0 96 C-0.6408587 93.31915596 -0.7698714 90.76154323 -1 88 C-2.60988604 91.21977208 -2.45861345 94.50798614 -2 98 C-0.04106737 101.83950796 2.50178732 104.53655574 5.5625 107.5 C9.40674805 111.253504 11.64758251 114.58342292 12.4375 120 C11.84362151 124.07230967 10.85114744 126.00977219 8 129 C4.99450399 129.79146453 2.1004615 129.98675016 -1 130 C-0.835 129.484375 -0.67 128.96875 -0.5 128.4375 C0.48568712 123.63227529 0.82145829 120.27613377 -1.8984375 116.05078125 C-2.71570313 115.14714844 -3.53296875 114.24351562 -4.375 113.3125 C-9.1140104 107.99427722 -11.31436722 105.23044611 -11 98 C-11 97.34 -11 96.68 -11 96 C-13.475 100.95 -13.475 100.95 -16 106 C-16.33 106 -16.66 106 -17 106 C-18.05300729 95.742929 -15.01096916 89.9866103 -8.6875 82.125 C-5.48294699 78.08963696 -5.65160647 74.05170611 -6 69 C-7.38214122 65.64838754 -7.38214122 65.64838754 -9 63 C-9.18175781 63.90363281 -9.36351562 64.80726563 -9.55078125 65.73828125 C-9.80214844 66.91777344 -10.05351562 68.09726563 -10.3125 69.3125 C-10.55613281 70.48425781 -10.79976562 71.65601563 -11.05078125 72.86328125 C-11.96393655 75.88082736 -12.55874874 77.10580785 -15 79 C-14.84273437 78.45988281 -14.68546875 77.91976562 -14.5234375 77.36328125 C-12.75384586 69.37370707 -13.70378948 61.91475766 -16.5 54.3125 C-20.04026985 44.6437061 -19.88500331 37.47732554 -16 28 C-13.97644969 23.99825482 -11.75502271 20.12503903 -9.5 16.25 C-8.91863281 15.23550781 -8.33726563 14.22101563 -7.73828125 13.17578125 C-5.20119141 8.75764539 -2.62961532 4.36375061 0 0 Z " fill="#633421" transform="translate(31,109)"/>
<path d="M0 0 C5.9847819 5.12981305 10.5841786 12.94197581 11.23828125 20.8984375 C11.52956134 34.54261004 7.01621595 45.46941725 1.48828125 57.6640625 C-1.08647858 63.43530895 -2.30670754 68.86734062 -0.3515625 75.05078125 C1.91367152 79.88134439 5.12573261 83.92299555 8.51171875 88.01953125 C11.37428884 91.82877806 11.25198192 95.38033145 11 100 C10.34 100.66 9.68 101.32 9 102 C8.54625 101.195625 8.0925 100.39125 7.625 99.5625 C4.33556338 94.55631361 -0.49354825 90.87004444 -5 87 C-4.51686703 90.39131199 -4.11558824 92.79194117 -2.4375 95.8125 C-0.60567786 99.87436648 -0.32134617 103.59315696 -1 108 C-1.99 108.99 -1.99 108.99 -3 110 C-4.32 109.01 -5.64 108.02 -7 107 C-6.505 107.99 -6.505 107.99 -6 109 C-5.62535888 114.6196168 -5.86390629 118.121632 -9 123 C-10.485 123.99 -10.485 123.99 -12 125 C-12.00257813 124.32195312 -12.00515625 123.64390625 -12.0078125 122.9453125 C-12.33407952 115.09315293 -14.63087904 110.40267495 -19 104 C-20.11805574 102.23790293 -21.22259727 100.46714793 -22.3125 98.6875 C-22.80363281 97.90761719 -23.29476562 97.12773437 -23.80078125 96.32421875 C-27.5107287 89.13392971 -26.40186206 81.55401492 -24.3125 74.0625 C-21.00060793 63.7416894 -13.59899106 54.59899106 -6 47 C-6.33 50.63 -6.66 54.26 -7 58 C0.63679384 42.66076583 0.63679384 42.66076583 4 26 C4.06445312 25.09378906 4.12890625 24.18757813 4.1953125 23.25390625 C4.46522288 16.33520344 3.32029058 10.86826882 0.875 4.3984375 C0 2 0 2 0 0 Z " fill="#633421" transform="translate(228,115)"/>
<path d="M0 0 C0.66 0.33 1.32 0.66 2 1 C1.67 1.66 1.34 2.32 1 3 C2.32 3 3.64 3 5 3 C6.67578125 5.1953125 6.67578125 5.1953125 8.3125 8.125 C13.57350754 16.80065725 20.08854557 22.17673722 30 25 C40.37923295 26.20202597 50.29819856 25.47975025 59.203125 19.52734375 C63.96649998 15.68210021 67.17060058 11.1347743 70.359375 5.94140625 C70.90078125 5.30074219 71.4421875 4.66007813 72 4 C73.32 4 74.64 4 76 4 C76.33 3.01 76.66 2.02 77 1 C79.48573168 3.48573168 79.37999595 4.42488353 79.5 7.875 C79.29435842 17.11677444 74.86110939 24.40723271 68.625 31 C63.17623226 36.02052011 58.54699574 39.1910391 51 39.25 C49.6655568 39.18688444 48.33132032 39.11094336 47 39 C46.34 37.68 45.68 36.36 45 35 C44.01 35.495 44.01 35.495 43 36 C39.91899659 36.27571479 36.83828524 36.44663533 33.75 36.62109375 C30.86015992 36.73719166 30.86015992 36.73719166 29 39 C24.66222068 39.92659558 20.62830026 39.8440023 16.65625 37.78515625 C14.26125179 35.99312414 12.13950555 34.09088042 10 32 C8.80117187 30.84177734 8.80117187 30.84177734 7.578125 29.66015625 C1.40624995 23.27650117 -3.00025873 16.70616484 -3.4375 7.625 C-3.00148464 4.01230128 -2.5354036 2.5354036 0 0 Z " fill="#FBC896" transform="translate(88,192)"/>
<path d="M0 0 C8.58 0 17.16 0 26 0 C24.02 0.99 24.02 0.99 22 2 C21.34 2.66 20.68 3.32 20 4 C22.31 4 24.62 4 27 4 C26.195625 4.61875 25.39125 5.2375 24.5625 5.875 C21.96125481 7.74164041 21.96125481 7.74164041 21 10 C21.66 9.67 22.32 9.34 23 9 C29.11651714 8.35222222 33.55276229 9.21843181 39 12 C39 12.33 39 12.66 39 13 C37.46279297 13.12955078 37.46279297 13.12955078 35.89453125 13.26171875 C34.53373419 13.40249086 33.17306292 13.54448269 31.8125 13.6875 C31.13896484 13.74099609 30.46542969 13.79449219 29.77148438 13.84960938 C24.60781924 14.42894741 22.28517878 16.05140648 19 20 C20.258125 19.938125 21.51625 19.87625 22.8125 19.8125 C25.62065146 19.67439419 26.59025178 19.64839787 28.76171875 21.51171875 C29.17035156 22.00285156 29.57898438 22.49398438 30 23 C28.98679687 23.19916016 28.98679687 23.19916016 27.953125 23.40234375 C27.06109375 23.57894531 26.1690625 23.75554688 25.25 23.9375 C24.36828125 24.11152344 23.4865625 24.28554688 22.578125 24.46484375 C20.36764947 24.92368488 18.18487932 25.43336074 16 26 C16 26.66 16 27.32 16 28 C17.546875 27.87625 17.546875 27.87625 19.125 27.75 C23.59994346 28.03870603 25.54995831 29.22313718 29 32 C29 32.33 29 32.66 29 33 C28.33613281 33.03738281 27.67226562 33.07476562 26.98828125 33.11328125 C19.98476743 33.57264889 19.98476743 33.57264889 14 37 C12.67206394 39.06700655 12.67206394 39.06700655 12 41 C11.34 41 10.68 41 10 41 C9.75967041 41.60884033 9.51934082 42.21768066 9.27172852 42.8449707 C5.2116535 49.72504023 -7.28702266 51.9935452 -14.4375 54.3125 C-15.51193359 54.67150391 -16.58636719 55.03050781 -17.69335938 55.40039062 C-25.59122024 58 -25.59122024 58 -29 58 C-29 56.68 -29 55.36 -29 54 C-27.0736638 52.14310852 -25.26992177 50.62555153 -23.125 49.0625 C-22.23578857 48.40109009 -22.23578857 48.40109009 -21.32861328 47.72631836 C-13.09415943 41.73066902 -4.91351126 38.31817849 5 36 C2.03 35.505 2.03 35.505 -1 35 C-0.67 34.34 -0.34 33.68 0 33 C3.0625 32.375 3.0625 32.375 6 32 C4.25008666 31.97284617 2.50005055 31.95353449 0.75 31.9375 C-0.22453125 31.92589844 -1.1990625 31.91429688 -2.203125 31.90234375 C-4.65758678 31.98804423 -6.66168914 32.29293934 -9 33 C-8 30 -8 30 -6.0625 28.375 C-1.79541543 26.45916611 2.36800351 26.26083087 7 26 C-0.6633792 20.2524656 -8.67009715 19.65172116 -18 19 C-13.8879431 14.8879431 -7.79136084 14.86442708 -2.25 14.8125 C1.0126853 14.8358049 3.864621 15.08429352 7 16 C5.68 14.02 4.36 12.04 3 10 C3.33 9.67 3.66 9.34 4 9 C-0.29 8.34 -4.58 7.68 -9 7 C-6.2012557 4.2012557 -4.43198928 4.00771409 -0.5 3.9375 C0.655 3.958125 1.81 3.97875 3 4 C3.99 4 4.98 4 6 4 C4.02 3.01 2.04 2.02 0 1 C0 0.67 0 0.34 0 0 Z " fill="#481805" transform="translate(115,7)"/>
<path d="M0 0 C5.10889286 0.57699119 9.98102823 1.42332549 15 2.5625 C31.66884123 5.91883182 49.50980278 4.89548111 66 1 C66.33 0.67 66.66 0.34 67 0 C69.33944736 0.28730055 71.6739143 0.61936779 74 1 C74 1.99 74 2.98 74 4 C73.41605469 4.05929688 72.83210938 4.11859375 72.23046875 4.1796875 C69.0342462 5.35518091 68.15055731 7.29662669 66.3125 10.125 C61.30162919 17.2701306 55.32425443 23.19060027 46.6953125 25.55078125 C34.16387935 27.63935344 24.55413325 26.33559198 14 19 C9.44501148 14.89281373 5.95352978 10.37167652 3 5 C3 4.34 3 3.68 3 3 C1.68 3 0.36 3 -1 3 C-0.67 2.01 -0.34 1.02 0 0 Z " fill="#0F0C0A" transform="translate(90,192)"/>
<path d="M0 0 C2.31 0.66 4.62 1.32 7 2 C7.29390625 3.56234375 7.29390625 3.56234375 7.59375 5.15625 C12.00521826 26.94700636 22.04410518 40.76542163 39 55 C38.67 55.99 38.34 56.98 38 58 C31.11983471 54.7892562 31.11983471 54.7892562 29 52 C28.63712662 50.67440134 28.30018323 49.34118564 28 48 C27.52433594 48.77923828 27.52433594 48.77923828 27.0390625 49.57421875 C23.0543118 55.5293296 18.69676518 58.49473533 12 61 C11.34 61 10.68 61 10 61 C10 59.68 10 58.36 10 57 C9.21625 57.94875 8.4325 58.8975 7.625 59.875 C6.13635096 61.67704884 4.65621152 63.34378848 3 65 C1.56091609 62.12183218 1.80587939 59.45639024 1.6875 56.25 C1.3270512 50.5874657 0.98201905 47.1026863 -3 43 C-3.66 43 -4.32 43 -5 43 C-6.5859375 41.42578125 -6.5859375 41.42578125 -8.375 39.3125 C-8.99375 38.58417969 -9.6125 37.85585937 -10.25 37.10546875 C-17.06911315 28.90122324 -17.06911315 28.90122324 -17.328125 21.97265625 C-16.91104348 19.46520185 -15.91145604 18.60461705 -14 17 C-13.98582031 17.59167969 -13.97164062 18.18335938 -13.95703125 18.79296875 C-13.90933594 19.58316406 -13.86164062 20.37335938 -13.8125 21.1875 C-13.76029297 22.35345703 -13.76029297 22.35345703 -13.70703125 23.54296875 C-12.54200191 27.59160663 -9.82725729 29.88571762 -6.27807617 32.05004883 C-4.4363516 33.02635216 -2.57643379 33.93125694 -0.6875 34.8125 C-0.04232422 35.12380859 0.60285156 35.43511719 1.26757812 35.75585938 C2.84059344 36.51323712 4.41969126 37.25796058 6 38 C4.84140595 34.82060237 3.72442611 32.37355211 1.4375 29.875 C-2.53628497 25.18797157 -2.43725269 20.8876583 -2 15 C-1.33333333 13 -0.66666667 11 0 9 C0.16878482 5.99165879 0.12038329 3.00958226 0 0 Z " fill="#461604" transform="translate(45,179)"/>
<path d="M0 0 C1.41694656 -0.0238678 1.41694656 -0.0238678 2.86251831 -0.04821777 C4.39067673 -0.0485199 4.39067673 -0.0485199 5.94970703 -0.04882812 C6.99901398 -0.05644165 8.04832092 -0.06405518 9.12942505 -0.07189941 C11.35025655 -0.08270989 13.57113893 -0.08554969 15.79199219 -0.08105469 C19.1878771 -0.08008374 22.58149306 -0.1216679 25.97705078 -0.16601562 C28.13459815 -0.17122356 30.29215338 -0.1739108 32.44970703 -0.17382812 C33.97179276 -0.19842102 33.97179276 -0.19842102 35.52462769 -0.22351074 C40.26671121 -0.17710687 42.57355905 -0.15206212 46.45019531 2.76953125 C48.33251953 5.41992188 48.33251953 5.41992188 49.33251953 8.41992188 C48.01251953 8.41992188 46.69251953 8.41992188 45.33251953 8.41992188 C45.00251953 9.07992187 44.67251953 9.73992187 44.33251953 10.41992188 C43.83751953 8.93492188 43.83751953 8.93492188 43.33251953 7.41992188 C43.99251953 7.08992188 44.65251953 6.75992188 45.33251953 6.41992188 C42.56933805 5.64104889 40.11061378 5.29178191 37.24267578 5.28710938 C36.46424316 5.28493408 35.68581055 5.28275879 34.88378906 5.28051758 C34.06249512 5.285271 33.24120117 5.29002441 32.39501953 5.29492188 C31.12827393 5.30108521 31.12827393 5.30108521 29.8359375 5.30737305 C16.42825686 4.80906993 16.42825686 4.80906993 4.33251953 9.41992188 C1.90835952 11.74062153 1.90835952 11.74062153 0.33251953 14.41992188 C0.6886065 17.74340025 1.84569611 19.32372099 4.33251953 21.48242188 C12.31580133 27.85291947 21.38328271 28.46425486 31.33251953 27.41992188 C34.88181326 26.4629604 38.16897132 25.30840164 41.33251953 23.41992188 C41.66251953 22.75992188 41.99251953 22.09992188 42.33251953 21.41992188 C41.71248047 21.70867187 41.09244141 21.99742187 40.45361328 22.29492188 C31.96175289 25.85482842 22.74262337 27.31206096 13.73876953 24.65429688 C10.08284192 22.93546524 6.66224461 20.7625709 4.33251953 17.41992188 C4.33251953 14.28037204 4.86578626 12.94050898 6.95751953 10.60742188 C10.16389503 9.00423412 12.80002805 9.21612429 16.33251953 9.41992188 C16.26291016 10.32484375 16.26291016 10.32484375 16.19189453 11.24804688 C15.93226101 16.32478106 15.93226101 16.32478106 17.83251953 20.91992188 C21.26789746 22.98114863 24.33110001 23.64222296 28.33251953 23.41992188 C31.33047788 22.08040857 32.86031828 21.36432437 34.33251953 18.41992188 C34.55874034 16.71628366 34.74140426 15.00663487 34.89501953 13.29492188 C34.97880859 12.38484375 35.06259766 11.47476563 35.14892578 10.53710938 C35.23980469 9.48910156 35.23980469 9.48910156 35.33251953 8.41992188 C38.77063747 8.7064317 40.07423146 9.15425415 42.52001953 11.66992188 C45.5552468 16.27509429 45.5552468 16.27509429 46.33251953 19.41992188 C45.03173828 22.71679688 45.03173828 22.71679688 43.02001953 26.16992188 C42.68550781 26.75902344 42.35099609 27.348125 42.00634766 27.95507812 C39.5974075 32.1550339 39.5974075 32.1550339 38.33251953 33.41992188 C29.24089494 33.27583315 20.18135761 31.8071668 11.21704102 30.37304688 C9.11087207 30.03951429 7.00227001 29.72580698 4.89306641 29.41210938 C3.54587192 29.1997651 2.1988585 28.9862681 0.85205078 28.77148438 C-0.35346436 28.58408691 -1.55897949 28.39668945 -2.80102539 28.20361328 C-5.66748047 27.41992188 -5.66748047 27.41992188 -7.66748047 24.41992188 C-8.09859804 20.93419259 -7.99172591 17.42946044 -7.97998047 13.91992188 C-7.99609375 12.95699219 -8.01220703 11.9940625 -8.02880859 11.00195312 C-8.02945313 10.07769531 -8.03009766 9.1534375 -8.03076172 8.20117188 C-8.03374268 7.35619141 -8.03672363 6.51121094 -8.03979492 5.640625 C-7.2540712 0.95410502 -4.37900635 0.04436694 0 0 Z " fill="#2F2D29" transform="translate(63.66748046875,117.580078125)"/>
<path d="M0 0 C1 2 1 2 0.00390625 5.1953125 C-0.47387491 6.50619101 -0.95450108 7.816035 -1.4375 9.125 C-4.6044784 18.22360846 -5.23140751 25.13107466 -1 34 C1.20149286 37.7799217 3.60506658 41.42553777 6.0390625 45.05859375 C8.70947036 49.06420554 9.11804193 50.84839415 9.0625 55.625 C9.05347656 56.62789062 9.04445312 57.63078125 9.03515625 58.6640625 C9.02355469 59.43492187 9.01195312 60.20578125 9 61 C7.85243816 58.74827151 6.81507848 56.5376962 5.875 54.1875 C3.67275864 50.44368968 1.08402629 48.23316424 -2.2578125 45.515625 C-4 44 -4 44 -5 42 C-4.85820312 42.67804688 -4.71640625 43.35609375 -4.5703125 44.0546875 C-3.26732095 52.30696729 -5.30928576 56.33799825 -10 63 C-10.69271235 64.31998933 -11.36926272 65.64929918 -12 67 C-16.83454463 63.77697025 -18.75216109 60.17379682 -21 55 C-21.33 56.65 -21.66 58.3 -22 60 C-26.20626034 58.49776416 -27.73900021 55.71449966 -30 52 C-30.45890625 52.44472656 -30.9178125 52.88945312 -31.390625 53.34765625 C-32.00421875 53.91355469 -32.6178125 54.47945312 -33.25 55.0625 C-33.85328125 55.63097656 -34.4565625 56.19945312 -35.078125 56.78515625 C-37 58 -37 58 -39.234375 57.68359375 C-39.81703125 57.45800781 -40.3996875 57.23242188 -41 57 C-40.31035156 56.45472656 -39.62070313 55.90945312 -38.91015625 55.34765625 C-26.92296273 45.72830342 -17.48367019 36.11151748 -11 22 C-10.34 22 -9.68 22 -9 22 C-8.95101562 21.31035156 -8.90203125 20.62070313 -8.8515625 19.91015625 C-7.72335674 5.7297769 -7.72335674 5.7297769 -6 2 C-2.875 0.4375 -2.875 0.4375 0 0 Z " fill="#451604" transform="translate(207,179)"/>
<path d="M0 0 C2 2 2 2 2 6 C9.92 6 17.84 6 26 6 C26.66 4.35 27.32 2.7 28 1 C29.98828125 -0.328125 29.98828125 -0.328125 32.3125 -1.25 C33.07175781 -1.56453125 33.83101563 -1.8790625 34.61328125 -2.203125 C44.07449404 -5.3620242 57.73537943 -6.18901152 66.875 -1.875 C71.10186979 0.51138774 72.60378817 2.92454581 76 7 C35.41 7 -5.18 7 -47 7 C-43.61538462 1.35897436 -43.61538462 1.35897436 -40 -0.75 C-39.319375 -1.15734375 -38.63875 -1.5646875 -37.9375 -1.984375 C-27.44220389 -7.48594151 -10.32857653 -4.73249159 0 0 Z " fill="#623825" transform="translate(112,104)"/>
<path d="M0 0 C3.62838428 3.1758287 5.51834328 6.65943095 7.4375 11 C7.735354 11.65556885 8.03320801 12.3111377 8.34008789 12.98657227 C11.02345681 18.93577467 13.55488823 24.94919346 16 31 C15.67 28.69 15.34 26.38 15 24 C16.94548464 25.94548464 17.68134952 27.23747619 18.8125 29.6875 C20.17272419 32.51453311 21.62198407 34.91428553 23.5625 37.375 C26.644083 41.49958032 27.7756992 46.06143527 29 51 C29.18691406 51.64453125 29.37382812 52.2890625 29.56640625 52.953125 C33.00574606 69.18928772 26.28257755 86.3601808 18 100 C15.58300961 92.74902883 18.32368131 85.35980793 21.0625 78.54296875 C23.0597308 73.12548021 23.24172718 67.90122564 23.3125 62.1875 C23.35600586 61.03411133 23.35600586 61.03411133 23.40039062 59.85742188 C23.46174921 54.26435063 22.46655451 49.52504972 19 45 C16.73909861 43.70348034 14.45108054 42.92493605 12 42 C11.0625 39.8125 11.0625 39.8125 11 38 C6.93631321 37.22596442 3.13574827 36.9015298 -1 37 C-1.1546875 35.8553125 -1.1546875 35.8553125 -1.3125 34.6875 C-2.05600892 31.78105605 -2.84858032 30.96433971 -5 29 C-5 28.34 -5 27.68 -5 27 C-0.545 27.99 -0.545 27.99 4 29 C2.99337378 19.26571024 1.98650799 9.59441093 0 0 Z " fill="#471705" transform="translate(203,74)"/>
<path d="M0 0 C5.19163513 0.44184129 9.11398007 1.76715267 13.7890625 4.0625 C22.60203045 7.79944754 34.02309051 6.75050089 43 4 C45.14256677 3.02880191 47.17916935 1.98916511 49.2109375 0.8046875 C51 0 51 0 55 0 C53.66393858 4.02217444 52.04819569 6.21514363 48.9375 9.0625 C41.713721 16.04160262 35.65562052 24.09359552 31 33 C28.95822059 31.01210919 27.11238588 28.9573099 25.3125 26.75 C21.88926486 22.72959116 18.0103928 19.41730654 14 16 C12.24351753 14.46572315 10.4936865 12.92380389 8.75 11.375 C7.94046875 10.66085937 7.1309375 9.94671875 6.296875 9.2109375 C3.9412279 6.94342686 1.91767817 4.64780335 0 2 C0 1.34 0 0.68 0 0 Z " fill="#FAC895" transform="translate(99,248)"/>
<path d="M0 0 C2.32602868 3.48904301 3.41117582 7.03390006 4.625 11 C4.96917969 12.08667969 4.96917969 12.08667969 5.3203125 13.1953125 C6.26068056 16.22911898 7 18.80543588 7 22 C7.66 21.67 8.32 21.34 9 21 C8.71125 20.13375 8.4225 19.2675 8.125 18.375 C8 15 8 15 9.19921875 13.265625 C10.73795016 11.7008134 12.2131999 10.27563956 14 9 C14.66 9 15.32 9 16 9 C16.20753906 9.93328125 16.41507813 10.8665625 16.62890625 11.828125 C17.71329467 15.18914077 17.71329467 15.18914077 20.71484375 16.609375 C21.77832031 16.98578125 22.84179688 17.3621875 23.9375 17.75 C27.31821004 18.98233659 29.99404541 19.99603027 33 22 C33.33 21.34 33.66 20.68 34 20 C34.66 21.32 35.32 22.64 36 24 C16.99884697 24.87930724 -0.7795849 22.47636072 -19 17 C-18.34 16.67 -17.68 16.34 -17 16 C-17.495 14.9275 -17.99 13.855 -18.5 12.75 C-19.88653911 9.74583192 -20 8.54065105 -20 5 C-19.11248047 5.23396484 -19.11248047 5.23396484 -18.20703125 5.47265625 C-12.10505622 7.06777557 -12.10505622 7.06777557 -6 6 C-5.67 5.34 -5.34 4.68 -5 4 C-4.34 4 -3.68 4 -3 4 C-3 3.34 -3 2.68 -3 2 C-2.01 1.34 -1.02 0.68 0 0 Z " fill="#191719" transform="translate(90,257)"/>
<path d="M0 0 C5.23000919 1.91854609 8.56624049 4.40557803 11.3125 9.375 C12.16952468 12.64727604 12.13204868 15.63275873 12 19 C10.02 19.33 8.04 19.66 6 20 C6 20.66 6 21.32 6 22 C6.60328125 21.7834375 7.2065625 21.566875 7.828125 21.34375 C8.62734375 21.0653125 9.4265625 20.786875 10.25 20.5 C11.03890625 20.2215625 11.8278125 19.943125 12.640625 19.65625 C15 19 15 19 19 19 C18.01 22.3 17.02 25.6 16 29 C16.66 29.33 17.32 29.66 18 30 C15.18986495 30.82151737 12.37731814 31.63231562 9.5625 32.4375 C8.77939453 32.66759766 7.99628906 32.89769531 7.18945312 33.13476562 C1.78110561 34.67046924 -3.3974601 35.51209112 -9 36 C-6 24 -3 12 0 0 Z " fill="#1E1B1E" transform="translate(166,243)"/>
<path d="M0 0 C-0.99 3.63 -1.98 7.26 -3 11 C-4.65 11.33 -6.3 11.66 -8 12 C-7.40075776 16.19469571 -6.42500059 20.00999834 -5 24 C-12.36496534 22.66367639 -18.61662016 20.17507778 -25.375 17 C-26.35855469 16.54882812 -27.34210937 16.09765625 -28.35546875 15.6328125 C-32.07653125 13.9122665 -35.58340612 12.27772926 -39 10 C-38 7 -38 7 -35.1875 5.44921875 C-29.98169262 3.41337622 -24.49638722 2.67593002 -19 1.8125 C-17.94554688 1.63525391 -16.89109375 1.45800781 -15.8046875 1.27539062 C-10.47173759 0.40995577 -5.40235156 -0.22254005 0 0 Z " fill="#262328" transform="translate(76,249)"/>
<path d="M0 0 C1 2 1 2 0.2578125 4.6875 C-0.11601563 5.780625 -0.48984375 6.87375 -0.875 8 C-2.7159947 13.70708357 -3.73004285 19.0204491 -4 25 C2.5404266 24.48702536 5.46925843 22.53074157 10 18 C9.69719077 22.84494765 7.19384338 25.6773537 4.27734375 29.328125 C2.89881575 30.78177191 2.89881575 30.78177191 3 32 C3.66 32.33 4.32 32.66 5 33 C-0.29955157 40.48071749 -0.29955157 40.48071749 -4.46875 41.75390625 C-6.67146581 41.97348077 -8.78889326 42.08022156 -11 42 C-11.09410156 42.62519531 -11.18820313 43.25039062 -11.28515625 43.89453125 C-11.52105469 44.58933594 -11.75695313 45.28414062 -12 46 C-15.4375 47.6875 -15.4375 47.6875 -19 49 C-19.99 49.495 -19.99 49.495 -21 50 C-20.04075247 43.36099733 -18.62489209 37.43277536 -15.90234375 31.2890625 C-14.95032026 28.87397261 -14.43772077 26.55412325 -14 24 C-13.34 24 -12.68 24 -12 24 C-11.63648438 22.9378125 -11.27296875 21.875625 -10.8984375 20.78125 C-8.13692829 12.943083 -5.55093 6.34392 0 0 Z " fill="#461604" transform="translate(50,70)"/>
<path d="M0 0 C0.33 7.92 0.66 15.84 1 24 C3.31 24.99 5.62 25.98 8 27 C9.16186523 29.28076172 9.16186523 29.28076172 9.55859375 31.9296875 C9.71650391 32.89003906 9.87441406 33.85039062 10.03710938 34.83984375 C10.23530273 36.34224609 10.23530273 36.34224609 10.4375 37.875 C10.59669922 38.86886719 10.75589844 39.86273438 10.91992188 40.88671875 C11.6026022 45.30197592 12.08083486 49.52646816 12 54 C7.92039957 53.4991562 6.46904517 51.59614177 4 48.4375 C0.7161708 44.14232451 -1.99115201 40.01726768 -4 35 C-4.29777344 34.32324219 -4.59554687 33.64648438 -4.90234375 32.94921875 C-7.09443706 27.10026933 -7.31175166 21.36533987 -7.375 15.1875 C-7.38885742 14.3627417 -7.40271484 13.5379834 -7.41699219 12.68823242 C-7.38058171 7.98792787 -7.06445684 4.80441105 -4 1 C-2 0 -2 0 0 0 Z " fill="#F6C392" transform="translate(38,121)"/>
<path d="M0 0 C7.17890731 0.64015734 14.21910498 1.60468592 21.3125 2.875 C22.27478516 3.03613281 23.23707031 3.19726562 24.22851562 3.36328125 C29.05393707 4.22484439 32.98077049 5.00057499 37 8 C33.52457154 12.08820138 29.53685001 13.90217378 24.75 16.0625 C24.02425781 16.40087891 23.29851562 16.73925781 22.55078125 17.08789062 C8.99816744 23.33272248 8.99816744 23.33272248 5 22 C5.33 21.278125 5.66 20.55625 6 19.8125 C7.00603529 16.98302573 7.16977402 14.97104534 7 12 C5.35 11.67 3.7 11.34 2 11 C1.34 7.37 0.68 3.74 0 0 Z " fill="#262328" transform="translate(179,249)"/>
<path d="M0 0 C5 2 5 2 6.2890625 3.59765625 C9.74526028 15.27656632 6.9115408 29.19889335 1.609375 39.7734375 C-1.24881235 44.7827869 -4.55368727 50.23869344 -9 54 C-9.99 54 -10.98 54 -12 54 C-11.35714676 47.76494772 -10.49994065 41.6138894 -9.4375 35.4375 C-9.29892578 34.61958984 -9.16035156 33.80167969 -9.01757812 32.95898438 C-8.6806501 30.97227085 -8.34065416 28.98607801 -8 27 C-5.69 26.34 -3.38 25.68 -1 25 C-0.67 16.75 -0.34 8.5 0 0 Z " fill="#F5C392" transform="translate(215,121)"/>
<path d="M0 0 C1.32 0.66 2.64 1.32 4 2 C3.01 2.66 2.02 3.32 1 4 C1.33 4.99 1.66 5.98 2 7 C1.505 7.433125 1.01 7.86625 0.5 8.3125 C-1.33218192 9.99740483 -1.33218192 9.99740483 -1 13 C-0.34 13 0.32 13 1 13 C1.2475 12.401875 1.495 11.80375 1.75 11.1875 C3.26091921 8.54339138 4.35610664 7.5306751 7 6 C10.453125 5.70703125 10.453125 5.70703125 14.25 5.8125 C15.51328125 5.83957031 16.7765625 5.86664063 18.078125 5.89453125 C19.52445313 5.94673828 19.52445313 5.94673828 21 6 C20.34 7.32 19.68 8.64 19 10 C16.33333333 9.33333333 13.66666667 8.66666667 11 8 C10.10422968 11.50164762 9.73283301 13.38129749 11.1875 16.75 C13.15849303 19.19674997 13.97827422 20.18331736 17 21 C21.31196219 21.15114094 24.12722733 20.72003745 27.5 17.9375 C29.51471123 13.99202384 29.2977966 11.39249985 29 7 C33.43677521 6.56502204 35.36663666 6.52497749 39 9.25 C41 12 41 12 41.125 14 C38.95822493 17.85204458 36.37668792 20.42835803 32.28125 22.12890625 C22.35676184 24.76362156 12.10291027 23.55145514 3 19 C2.67 19.66 2.34 20.32 2 21 C0.98696238 19.27843904 -0.00994848 17.54738194 -1 15.8125 C-1.556875 14.84957031 -2.11375 13.88664063 -2.6875 12.89453125 C-4.04399296 9.90297982 -4.43655076 8.23047561 -4 5 C-2 2.1875 -2 2.1875 0 0 Z " fill="#2A2929" transform="translate(144,120)"/>
<path d="M0 0 C12.2125151 2.19825272 24.4371282 9.00482787 33 18 C33.73046875 20.14453125 33.73046875 20.14453125 34 22 C34.495 22.99 34.495 22.99 35 24 C33.35 23.67 31.7 23.34 30 23 C30 23.66 30 24.32 30 25 C17.52858733 21.929285 4.59491424 18.37981978 -6.1171875 11.1015625 C-8.06800086 9.74750799 -8.06800086 9.74750799 -11 10 C-12.6396875 11.08861328 -12.6396875 11.08861328 -14.3125 12.19921875 C-20.07797316 15.94123258 -26.49158271 17.74726305 -33 19.8125 C-34.87751953 20.42254883 -34.87751953 20.42254883 -36.79296875 21.04492188 C-39.85900135 22.03962711 -42.92786791 23.02433014 -46 24 C-46.33 23.01 -46.66 22.02 -47 21 C-46.1529248 20.71801758 -45.30584961 20.43603516 -44.43310547 20.14550781 C-41.26608849 19.08651076 -38.10197935 18.01956439 -34.93945312 16.94726562 C-33.57496072 16.48641057 -32.20941188 16.02867036 -30.84277344 15.57421875 C-28.86882371 14.91719607 -26.89905312 14.24874531 -24.9296875 13.578125 C-23.15440674 12.98112793 -23.15440674 12.98112793 -21.34326172 12.37207031 C-15.176995 9.87149035 -15.176995 9.87149035 -11 5 C-10.01 5 -9.02 5 -8 5 C-6.88431641 6.13888672 -6.88431641 6.13888672 -5.74609375 7.30078125 C-2.66910084 10.32525081 -0.04370374 11.5751341 3.9375 13.1875 C5.71447266 13.92033203 5.71447266 13.92033203 7.52734375 14.66796875 C14.07875218 17.2353634 14.07875218 17.2353634 21 18 C16.71 15.03 12.42 12.06 8 9 C11 8 11 8 13.91796875 9.43359375 C14.99691406 10.09488281 16.07585937 10.75617187 17.1875 11.4375 C18.27417969 12.09621094 19.36085938 12.75492188 20.48046875 13.43359375 C21.31191406 13.95050781 22.14335937 14.46742187 23 15 C18.42591979 9.44575974 12.40763204 7.01826683 6 4 C3.99769055 3.0046323 1.99701497 2.00594793 0 1 C0 0.67 0 0.34 0 0 Z " fill="#140E0A" transform="translate(136,43)"/>
<path d="M0 0 C0.66 1.32 1.32 2.64 2 4 C-4.757357 11.60202662 -13.88527467 14.16659499 -23.3125 17.25 C-24.39595703 17.61351563 -25.47941406 17.97703125 -26.59570312 18.3515625 C-34.60573308 21 -34.60573308 21 -38 21 C-38 19.68 -38 18.36 -38 17 C-36.0737706 15.14321147 -34.26953294 13.62583774 -32.125 12.0625 C-31.53509277 11.62228516 -30.94518555 11.18207031 -30.33740234 10.72851562 C-20.97675517 3.89592645 -11.74000314 -0.41192993 0 0 Z " fill="#461705" transform="translate(124,44)"/>
<path d="M0 0 C1.670625 0.2165625 1.670625 0.2165625 3.375 0.4375 C11.93981351 1.49430708 20.36284253 2.19341131 29 2.1875 C29.9887915 2.18814453 30.97758301 2.18878906 31.99633789 2.18945312 C41.09219125 2.12514565 49.99950676 1.25849593 59 0 C55.34375 5.8359375 55.34375 5.8359375 52.25 7.3125 C43.8609287 9.08711124 35.61293962 9.21409264 27.0625 9.25 C25.83853516 9.270625 24.61457031 9.29125 23.35351562 9.3125 C16.6327676 9.34142199 10.02292619 9.34824903 4 6 C2.19305532 4.07224216 1.2179245 2.38289577 0 0 Z " fill="#F1F1F1" transform="translate(97,197)"/>
<path d="M0 0 C0.66 0.33 1.32 0.66 2 1 C2.6328125 3.72265625 2.6328125 3.72265625 3.125 7.0625 C3.29257813 8.16722656 3.46015625 9.27195312 3.6328125 10.41015625 C3.75398438 11.26480469 3.87515625 12.11945312 4 13 C4.99 12.34 5.98 11.68 7 11 C9.26171875 10.8046875 9.26171875 10.8046875 11.6875 10.875 C12.89986328 10.90207031 12.89986328 10.90207031 14.13671875 10.9296875 C15.05904297 10.96449219 15.05904297 10.96449219 16 11 C12.43904445 12.87501642 8.8877114 13.95330847 5 15 C5 15.66 5 16.32 5 17 C6.546875 16.87625 6.546875 16.87625 8.125 16.75 C12.59994346 17.03870603 14.54995831 18.22313718 18 21 C18 21.33 18 21.66 18 22 C17.00419922 22.05607422 17.00419922 22.05607422 15.98828125 22.11328125 C9.00004697 22.59739917 9.00004697 22.59739917 3 26 C1.21655822 28.06954847 1.21655822 28.06954847 0 30 C-0.495 29.38125 -0.99 28.7625 -1.5 28.125 C-4.88221437 25.25011778 -7.67257085 24.86548583 -12 24 C-11.67 23.34 -11.34 22.68 -11 22 C-7.9375 21.375 -7.9375 21.375 -5 21 C-6.74991334 20.97284617 -8.49994945 20.95353449 -10.25 20.9375 C-11.22453125 20.92589844 -12.1990625 20.91429688 -13.203125 20.90234375 C-15.65758678 20.98804423 -17.66168914 21.29293934 -20 22 C-19 19 -19 19 -17.0625 17.375 C-12.79541543 15.45916611 -8.63199649 15.26083087 -4 15 C-8.60516269 11.54612799 -12.36007889 10.16688023 -18 9 C-18 8.34 -18 7.68 -18 7 C-11.9222547 7.27012201 -7.84393837 7.9830755 -3 12 C-2.01 13.485 -2.01 13.485 -1 15 C-0.67 10.05 -0.34 5.1 0 0 Z " fill="#350501" transform="translate(126,18)"/>
<path d="M0 0 C3.5 0.4375 3.5 0.4375 5.11328125 1.640625 C6.84182475 3.88042785 7.44487492 5.90204139 8.1875 8.625 C8.43886719 9.52605469 8.69023437 10.42710938 8.94921875 11.35546875 C9.13097656 12.04253906 9.31273437 12.72960937 9.5 13.4375 C10.16 13.4375 10.82 13.4375 11.5 13.4375 C11.52578125 14.00597656 11.5515625 14.57445312 11.578125 15.16015625 C12.00714419 21.00066749 13.38139617 24.50809394 16.5 29.4375 C16.5 30.0975 16.5 30.7575 16.5 31.4375 C15.51 31.1075 14.52 30.7775 13.5 30.4375 C13.17 29.7775 12.84 29.1175 12.5 28.4375 C12.5 32.0675 12.5 35.6975 12.5 39.4375 C11.84 39.4375 11.18 39.4375 10.5 39.4375 C8.84539311 35.05843999 8.23535799 31.29216578 8.0625 26.625 C7.72234704 20.68492152 6.68702605 15.95260917 4.5 10.4375 C1.44665909 10.4471017 -0.66499798 10.45998269 -3.5 11.4375 C-5.60239725 13.75371298 -6.68489819 16.38019753 -7.875 19.25 C-8.20371094 19.97509766 -8.53242187 20.70019531 -8.87109375 21.44726562 C-9.48340509 22.80203546 -10.08313023 24.16262135 -10.66552734 25.53051758 C-11.54346943 27.53683872 -12.50615277 29.48636396 -13.5 31.4375 C-14.49 31.1075 -15.48 30.7775 -16.5 30.4375 C-16.1390625 29.86902344 -15.778125 29.30054688 -15.40625 28.71484375 C-12.35855918 23.64382486 -11.14481179 20.4756995 -11.5 14.4375 C-10.5 12 -10.5 12 -9.5 10.4375 C-8.84 10.4375 -8.18 10.4375 -7.5 10.4375 C-7.396875 9.53 -7.29375 8.6225 -7.1875 7.6875 C-6.11586048 2.62156774 -5.34578477 0.6682231 0 0 Z " fill="#121110" transform="translate(126.5,117.5625)"/>
<path d="M0 0 C0.495 0.99 0.495 0.99 1 2 C-9.45725227 10.13131732 -17.51949161 13.65803044 -31 12 C-37.83767159 9.67410261 -42.72847554 6.88587995 -47 1 C-46.12730469 1.16113281 -45.25460938 1.32226562 -44.35546875 1.48828125 C-38.37577766 2.33694376 -32.33922864 2.18432302 -26.3125 2.1875 C-25.10916016 2.19974609 -23.90582031 2.21199219 -22.66601562 2.22460938 C-14.90994314 2.23717999 -7.60169951 1.54378088 0 0 Z " fill="#5B0303" transform="translate(150,203)"/>
<path d="M0 0 C0.13927179 5.64050733 -0.28899085 10.78325148 -1.375 16.3125 C-1.56449219 17.3653418 -1.56449219 17.3653418 -1.7578125 18.43945312 C-2.41071155 21.86390863 -3.04073675 24.06110512 -5 27 C-5.47050781 26.55527344 -5.94101563 26.11054688 -6.42578125 25.65234375 C-7.04839844 25.08644531 -7.67101562 24.52054687 -8.3125 23.9375 C-8.92738281 23.36902344 -9.54226562 22.80054688 -10.17578125 22.21484375 C-10.77777344 21.81394531 -11.37976563 21.41304688 -12 21 C-12.99 21.33 -13.98 21.66 -15 22 C-15.09474609 22.96099609 -15.09474609 22.96099609 -15.19140625 23.94140625 C-16.05804175 30.06258963 -17.62635956 33.50525853 -22.05078125 37.8203125 C-24.50194205 39.30378056 -26.18462282 39.22290422 -29 39 C-25.99257743 31.70304312 -21.97841861 26.45386147 -16.578125 20.73828125 C-14.1097773 18.1165968 -11.7429314 15.45318839 -9.4375 12.6875 C-8.47650391 11.54861328 -8.47650391 11.54861328 -7.49609375 10.38671875 C-5.71694309 7.54843924 -5.26120707 5.32237061 -5 2 C-5.33 1.34 -5.66 0.68 -6 0 C-3.50907189 -1.24546405 -2.58919267 -0.7767578 0 0 Z " fill="#28272B" transform="translate(162,242)"/>
<path d="M0 0 C1 3 1 3 0.875 6.75 C0.79631901 18.84720242 3.92616732 32.3081282 12.2265625 41.453125 C14 44 14 44 14.05859375 47.0078125 C13.85363281 48.03648437 13.64867188 49.06515625 13.4375 50.125 C13.25058594 51.15882813 13.06367187 52.19265625 12.87109375 53.2578125 C11.98920599 56.03397934 11.23795469 57.20219706 9 59 C8.99742188 58.26136719 8.99484375 57.52273437 8.9921875 56.76171875 C8.67479406 48.43543097 6.46063331 42.95901687 2 36 C-3.02240702 28.12519335 -6.37695254 21.62529932 -5 12 C-3.60024638 7.86414262 -1.8920042 3.93266586 0 0 Z " fill="#481805" transform="translate(25,128)"/>
<path d="M0 0 C2.32602868 3.48904301 3.41117582 7.03390006 4.625 11 C4.85445313 11.72445313 5.08390625 12.44890625 5.3203125 13.1953125 C6.26068056 16.22911898 7 18.80543588 7 22 C7.66 21.67 8.32 21.34 9 21 C8.71125 20.13375 8.4225 19.2675 8.125 18.375 C8 15 8 15 9.19921875 13.265625 C10.73795016 11.7008134 12.2131999 10.27563956 14 9 C14.66 9 15.32 9 16 9 C16.20753906 9.93328125 16.41507813 10.8665625 16.62890625 11.828125 C17.71329467 15.18914077 17.71329467 15.18914077 20.71484375 16.609375 C21.77832031 16.98578125 22.84179688 17.3621875 23.9375 17.75 C27.31821004 18.98233659 29.99404541 19.99603027 33 22 C33.33 21.34 33.66 20.68 34 20 C34.66 21.32 35.32 22.64 36 24 C32.31251691 24.02925502 28.62506408 24.04688418 24.9375 24.0625 C23.89916016 24.07087891 22.86082031 24.07925781 21.79101562 24.08789062 C16.41276931 24.10496442 11.29666789 23.95415152 6 23 C4.30493098 18.64125108 2.717181 14.27403441 1.3125 9.8125 C1.06113281 9.01457031 0.80976562 8.21664063 0.55078125 7.39453125 C-0.03348101 4.85444072 -0.09688613 2.59747104 0 0 Z " fill="#2D2B2E" transform="translate(90,257)"/>
<path d="M0 0 C2.4375 0.375 2.4375 0.375 5 1 C5.33 1.66 5.66 2.32 6 3 C4.68 2.67 3.36 2.34 2 2 C4.54282481 8.97374709 7.87497739 13.56380356 13.25 18.625 C13.91733154 19.27307617 14.58466309 19.92115234 15.2722168 20.58886719 C19.2544995 24.43102086 23.30399255 28.19003362 27.58203125 31.703125 C29 33 29 33 31 36 C29.32598903 35.35199575 27.66194738 34.67834587 26 34 C25.25234375 33.75507813 24.5046875 33.51015625 23.734375 33.2578125 C17.49330347 30.98284126 17.49330347 30.98284126 15.9765625 27.9609375 C15.4375 25.75 15.4375 25.75 15 22 C11.59126484 24.24666636 8.25200793 26.53271572 5 29 C-2.52777778 5.05555556 -2.52777778 5.05555556 0 0 Z " fill="#27262A" transform="translate(92,241)"/>
<path d="M0 0 C0.99 0 1.98 0 3 0 C3.33 6.6 3.66 13.2 4 20 C6.31 20.99 8.62 21.98 11 23 C12.07006836 25.0847168 12.07006836 25.0847168 12.33984375 27.44921875 C12.45263672 28.29677734 12.56542969 29.14433594 12.68164062 30.01757812 C12.76607422 30.89865234 12.85050781 31.77972656 12.9375 32.6875 C13.04900391 33.58017578 13.16050781 34.47285156 13.27539062 35.39257812 C13.54606916 37.59331226 13.78626793 39.79312906 14 42 C9.54447785 40.63859045 7.56352309 38.8722124 5 35 C0.52512406 25.11994497 -2.55548458 13.66645373 1 3 C0.67 2.01 0.34 1.02 0 0 Z " fill="#D28563" transform="translate(35,125)"/>
<path d="M0 0 C0.99 0 1.98 0 3 0 C2.814375 0.61875 2.62875 1.2375 2.4375 1.875 C1.76313824 4.04160178 1.76313824 4.04160178 3 6 C4.27753545 18.20935775 2.04925465 28.58769418 -4.953125 38.8671875 C-7 41 -7 41 -11 42 C-10.01 35.73 -9.02 29.46 -8 23 C-5.69 22.34 -3.38 21.68 -1 21 C-0.67 14.07 -0.34 7.14 0 0 Z " fill="#D58866" transform="translate(215,125)"/>
<path d="M0 0 C5.49339839 0.56658369 10.7807276 1.45319448 16.17578125 2.64453125 C28.72490825 5.19732446 39.62071494 4.31075577 51.96166992 1.50561523 C63.21216055 -1.03124904 63.21216055 -1.03124904 68.36328125 1.08203125 C69.13671875 1.57703125 69.13671875 1.57703125 69.92578125 2.08203125 C67.92578125 3.08203125 67.92578125 3.08203125 65.67578125 3.01953125 C62.42850359 3.09333301 59.99949875 4.04607461 56.92578125 5.08203125 C39.86060462 9.25810166 20.86160085 8.25491949 3.92578125 4.08203125 C2.56453125 3.76298828 2.56453125 3.76298828 1.17578125 3.4375 C-0.58117046 3.01351339 -2.32968217 2.55450991 -4.07421875 2.08203125 C-2.07421875 0.08203125 -2.07421875 0.08203125 0 0 Z " fill="#E8B889" transform="translate(94.07421875,189.91796875)"/>
<path d="M0 0 C5.26121955 1.65352614 8.63820328 4.53579641 11.3125 9.375 C12.16952468 12.64727604 12.13204868 15.63275873 12 19 C8.94626148 19.94002983 7.48520864 20.21066269 4.5078125 18.91796875 C1.97736754 17.08028495 -0.06243732 15.46481978 -2 13 C-2.69990408 8.35963596 -1.46016641 4.38049923 0 0 Z " fill="#262328" transform="translate(166,243)"/>
<path d="M0 0 C0.515625 0.37125 1.03125 0.7425 1.5625 1.125 C0.69588909 4.91642273 -0.72698629 6.58045962 -3.9140625 8.58984375 C-8.49563899 11.34300708 -13.21271771 12.9716491 -18.3125 14.5 C-19.16585937 14.77199219 -20.01921875 15.04398438 -20.8984375 15.32421875 C-27.16935237 17.25907381 -27.16935237 17.25907381 -29.4375 16.125 C-24.8175 13.485 -20.1975 10.845 -15.4375 8.125 C-17.4175 8.455 -19.3975 8.785 -21.4375 9.125 C-16.98433055 3.92963564 -6.91362182 -2.48181296 0 0 Z " fill="#61321F" transform="translate(124.4375,44.875)"/>
<path d="M0 0 C0.99 0.33 1.98 0.66 3 1 C5.91224537 10.20269538 5.91224537 10.20269538 3.8203125 14.32421875 C1.97878056 16.3417193 0.41717266 17.72376892 -2 19 C-5.9375 18.9375 -5.9375 18.9375 -9 18 C-9.77561363 11.9243599 -8.06549965 8.88161802 -4.60546875 3.91796875 C-3 2 -3 2 0 0 Z " fill="#252227" transform="translate(85,244)"/>
<path d="M0 0 C-0.47050781 0.35191406 -0.94101563 0.70382813 -1.42578125 1.06640625 C-5.9710474 4.67062351 -8.1318087 7.5053197 -10 13 C-9.49210937 12.57847656 -8.98421875 12.15695313 -8.4609375 11.72265625 C-4.36302174 8.46120644 -1.42011235 6.27100562 4 6 C2.5022698 8.9954604 -0.04303887 9.52151943 -3 11 C-6.83154458 13.72989985 -9.22197665 16.44279812 -11.6875 20.4375 C-12.26886719 21.36433594 -12.85023437 22.29117188 -13.44921875 23.24609375 C-14.87872681 25.78464082 -15.99424255 28.27008691 -17 31 C-17.33 31 -17.66 31 -18 31 C-18.62621031 24.11168659 -16.35806067 18.41097745 -14 12 C-15.65 14.64 -17.3 17.28 -19 20 C-20 17 -20 17 -19.28515625 14.984375 C-15.83685142 8.68268055 -8.28539225 -2.76179742 0 0 Z " fill="#8C6A5C" transform="translate(75,29)"/>
<path d="M0 0 C12.2125151 2.19825272 24.4371282 9.00482787 33 18 C33.73046875 20.14453125 33.73046875 20.14453125 34 22 C34.495 22.99 34.495 22.99 35 24 C31.73479256 23.19924675 28.49253933 22.32533815 25.25 21.4375 C24.26515625 21.16808594 23.2803125 20.89867188 22.265625 20.62109375 C21.51796875 20.41613281 20.7703125 20.21117188 20 20 C20 19.01 20 18.02 20 17 C17.31697609 14.84502789 17.31697609 14.84502789 14 12.8125 C13.42765625 12.44447266 12.8553125 12.07644531 12.265625 11.69726562 C10.84975538 10.78874929 9.42562203 9.89313523 8 9 C11 8 11 8 13.91796875 9.43359375 C14.99691406 10.09488281 16.07585937 10.75617187 17.1875 11.4375 C18.27417969 12.09621094 19.36085937 12.75492188 20.48046875 13.43359375 C21.31191406 13.95050781 22.14335937 14.46742187 23 15 C18.42591979 9.44575974 12.40763204 7.01826683 6 4 C3.99769055 3.0046323 1.99701497 2.00594793 0 1 C0 0.67 0 0.34 0 0 Z " fill="#461805" transform="translate(136,43)"/>
<path d="M0 0 C18.81 0 37.62 0 57 0 C57 4.29 57 8.58 57 13 C56.34 11.68 55.68 10.36 55 9 C54.34 9.66 53.68 10.32 53 11 C50.375 11.125 50.375 11.125 48 11 C46.875 8.6875 46.875 8.6875 46 6 C46.66 5.01 47.32 4.02 48 3 C48.66 3 49.32 3 50 3 C50 2.34 50 1.68 50 1 C33.5 1 17 1 0 1 C0 0.67 0 0.34 0 0 Z " fill="#333333" transform="translate(156,113)"/>
<path d="M0 0 C1.1577506 3.47325181 1.06866652 6.36067448 1 10 C1.61488281 9.90460938 2.22976562 9.80921875 2.86328125 9.7109375 C3.67152344 9.60007813 4.47976562 9.48921875 5.3125 9.375 C6.11300781 9.25898438 6.91351563 9.14296875 7.73828125 9.0234375 C10 9 10 9 13 11 C15.21582589 11.31560324 15.21582589 11.31560324 17.5625 11.25 C18.34753906 11.25515625 19.13257813 11.2603125 19.94140625 11.265625 C22.22290968 11.18429262 22.22290968 11.18429262 24 9 C27.01826653 8.72759327 29.96370622 8.91324875 33 9 C33 6.03 33 3.06 33 0 C33.66 0 34.32 0 35 0 C36.11445498 2.22890995 36.16480286 3.53055106 36.1875 6 C36.20167969 6.70125 36.21585938 7.4025 36.23046875 8.125 C36 10 36 10 34 12 C32.01171875 11.984375 32.01171875 11.984375 29.6875 11.75 C26.25974684 11.58187484 26.25974684 11.58187484 23.47265625 13.328125 C23.06917969 13.87984375 22.66570312 14.4315625 22.25 15 C20 18 20 18 17.5 18.75 C14.27049885 17.78114965 13.50974618 15.9587135 11.59375 13.32421875 C9.32739863 11.44114739 7.71007557 11.70009405 4.8125 11.8125 C3.95269531 11.90144531 3.09289062 11.99039063 2.20703125 12.08203125 C1.47871094 12.05496094 0.75039062 12.02789062 0 12 C-2 9 -2 9 -1.6875 5.4375 C-1 2 -1 2 0 0 Z " fill="#853B2C" transform="translate(109,169)"/>
<path d="M0 0 C18.81 0 37.62 0 57 0 C57 0.33 57 0.66 57 1 C40.17 1 23.34 1 6 1 C6 1.66 6 2.32 6 3 C7.32 3.66 8.64 4.32 10 5 C9.67 6.65 9.34 8.3 9 10 C5.32431536 10.91892116 3.83619425 10.95904856 0 10 C0 6.7 0 3.4 0 0 Z " fill="#323232" transform="translate(41,113)"/>
<path d="M0 0 C4.31512624 0.87780941 6.32829051 2.41227583 9 6 C9.12837726 8.88848831 8.6307435 11.13739488 8 14 C2.61509359 14.91657981 -2.54230189 15.11138159 -8 15 C-7.38511719 14.38125 -7.38511719 14.38125 -6.7578125 13.75 C-2.61618292 9.31112428 -1.04827846 5.97518721 0 0 Z " fill="#2E2B2C" transform="translate(148,266)"/>
<path d="M0 0 C4.12496094 1.64998438 6.03721213 2.58422274 9.1875 5.375 C9.86167969 5.96023437 10.53585938 6.54546875 11.23046875 7.1484375 C13.00674218 9.00705473 13.99106496 10.65099226 15 13 C13.02 11.68 11.04 10.36 9 9 C9.22816406 9.60328125 9.45632812 10.2065625 9.69140625 10.828125 C9.97886719 11.62734375 10.26632813 12.4265625 10.5625 13.25 C10.85253906 14.03890625 11.14257812 14.8278125 11.44140625 15.640625 C12.04522837 18.19103452 11.8473932 19.55322229 11 22 C10.443125 21.34773438 9.88625 20.69546875 9.3125 20.0234375 C4.60352156 14.63038449 -0.04554969 9.99126642 -6 6 C-3 5 -3 5 -0.95703125 5.99609375 C2.02148438 7.99804688 2.02148438 7.99804688 5 10 C3.35 6.7 1.7 3.4 0 0 Z " fill="#8C6A5C" transform="translate(169,42)"/>
<path d="M0 0 C0.33 0 0.66 0 1 0 C0.29413757 8.47034916 -0.8593074 17.45354293 -5 25 C-5.66 25 -6.32 25 -7 25 C-6.731875 23.948125 -6.46375 22.89625 -6.1875 21.8125 C-5.57802592 17.89327136 -5.57802592 17.89327136 -8.25 15.125 C-10.8675412 12.86090641 -10.8675412 12.86090641 -14 12 C-14.07476562 12.66386719 -14.14953125 13.32773437 -14.2265625 14.01171875 C-15.43420666 22.12187806 -15.43420666 22.12187806 -19.125 25.125 C-20.07375 25.74375 -21.0225 26.3625 -22 27 C-22.66 26.67 -23.32 26.34 -24 26 C-23.05125 25.21625 -22.1025 24.4325 -21.125 23.625 C-17.59616345 20.1786129 -17.09685184 16.96851843 -16.6171875 12.171875 C-16.41351563 11.45515625 -16.20984375 10.7384375 -16 10 C-14.68 9.34 -13.36 8.68 -12 8 C-9.69 9.98 -7.38 11.96 -5 14 C-3.64517241 11.0193793 -2.94375224 8.58517274 -2.5 5.3125 C-2 2 -2 2 0 0 Z " fill="#050505" transform="translate(162,254)"/>
<path d="M0 0 C0.33 0 0.66 0 1 0 C1.01417969 0.76441406 1.02835938 1.52882812 1.04296875 2.31640625 C1.37723828 9.82391911 2.74307497 16.16674153 5.36010742 23.14868164 C5.95336787 24.74926889 6.48234552 26.37338654 7 28 C6.67 28.66 6.34 29.32 6 30 C4.70291686 28.58829091 3.41254022 27.17041804 2.125 25.75 C1.40570313 24.96109375 0.68640625 24.1721875 -0.0546875 23.359375 C-3.83564859 18.77363103 -4.42261823 15.4017306 -4.3359375 9.55078125 C-3.82007262 5.63380724 -2.23924266 3.21891132 0 0 Z " fill="#481805" transform="translate(211,187)"/>
<path d="M0 0 C1.56814453 0.02320313 1.56814453 0.02320313 3.16796875 0.046875 C5.8125 0.25 5.8125 0.25 7.8125 1.25 C7.8125 4.55 7.8125 7.85 7.8125 11.25 C8.4725 11.58 9.1325 11.91 9.8125 12.25 C9.1525 12.91 8.4925 13.57 7.8125 14.25 C7.3175 13.63125 6.8225 13.0125 6.3125 12.375 C2.93028563 9.50011778 0.13992915 9.11548583 -4.1875 8.25 C-3.8575 7.59 -3.5275 6.93 -3.1875 6.25 C-0.125 5.625 -0.125 5.625 2.8125 5.25 C1.06258666 5.22284617 -0.68744945 5.20353449 -2.4375 5.1875 C-3.41203125 5.17589844 -4.3865625 5.16429687 -5.390625 5.15234375 C-7.84508678 5.23804423 -9.84918914 5.54293934 -12.1875 6.25 C-11.1875 3.25 -11.1875 3.25 -9.01171875 1.578125 C-5.75394532 0.04611536 -3.58057351 -0.08895835 0 0 Z " fill="#481805" transform="translate(118.1875,33.75)"/>
<path d="M0 0 C0.66 0 1.32 0 2 0 C4.35050868 3.67266981 4.36348132 6.7109204 4 11 C3.05007438 13.35416349 2.05047644 15.68895182 1 18 C0.60235737 19.98821313 0.24544834 21.98732362 0 24 C-0.99 23.67 -1.98 23.34 -3 23 C-5.24014438 18.51971124 -4.38166593 13.39166399 -3.10546875 8.73828125 C-2.12240419 5.80298249 -1.09705622 2.8944653 0 0 Z " fill="#62321F" transform="translate(193,216)"/>
<path d="M0 0 C0.66 0.66 1.32 1.32 2 2 C-9.88 2 -21.76 2 -34 2 C-33 0 -33 0 -30.3828125 -1.109375 C-20.91348423 -3.6024545 -9.40521056 -2.59564585 0 0 Z " fill="#DEB184" transform="translate(104,109)"/>
<path d="M0 0 C0 0.33 0 0.66 0 1 C-12.21 1 -24.42 1 -37 1 C-27.3444209 -5.43705273 -10.22901363 -4.81365347 0 0 Z " fill="#DEB184" transform="translate(183,110)"/>
<path d="M0 0 C0.93223389 0.31940552 0.93223389 0.31940552 1.88330078 0.64526367 C9.95548762 3.15434519 17.46582905 3.41835563 25.875 3.3125 C27.14730469 3.31572266 28.41960937 3.31894531 29.73046875 3.32226562 C37.98724042 3.27587927 45.88160254 2.49766002 54 1 C50.22141971 5.61370415 44.60295091 5.41317504 39 6 C34.26616045 6.27602368 29.5535172 6.32529281 24.8125 6.3125 C23.00362305 6.33666992 23.00362305 6.33666992 21.15820312 6.36132812 C14.5293184 6.36494849 7.93375718 6.31686237 2 3 C1.34 2.01 0.68 1.02 0 0 Z " fill="#9F9D9D" transform="translate(99,200)"/>
<path d="M0 0 C0.28875 1.2375 0.5775 2.475 0.875 3.75 C1.94331355 6.68526926 2.58735023 7.75963498 5.3203125 9.3515625 C7.07070173 10.0200785 8.83963638 10.64238421 10.625 11.2109375 C13 12 13 12 16 14 C16 14.66 16 15.32 16 16 C15.29359375 15.71640625 14.5871875 15.4328125 13.859375 15.140625 C11.96020963 14.38303444 10.0538394 13.64325092 8.140625 12.921875 C5.28405141 11.76380463 2.62622016 10.61782177 0 9 C-1.1875 5.6875 -1.1875 5.6875 -1 3 C-3.61534535 4.7805219 -5.97453209 6.5556526 -8 9 C-8.1143337 12.80001865 -8.1143337 12.80001865 -7 16 C-7.99 16 -8.98 16 -10 16 C-10.50512244 14.39743892 -11.00391627 12.79288208 -11.5 11.1875 C-11.7784375 10.29417969 -12.056875 9.40085937 -12.34375 8.48046875 C-13 6 -13 6 -13 3 C-12.34 3 -11.68 3 -11 3 C-10.01 4.485 -10.01 4.485 -9 6 C-8.51789063 5.566875 -8.03578125 5.13375 -7.5390625 4.6875 C-6.90742187 4.130625 -6.27578125 3.57375 -5.625 3 C-4.99851562 2.443125 -4.37203125 1.88625 -3.7265625 1.3125 C-2 0 -2 0 0 0 Z " fill="#040404" transform="translate(107,263)"/>
<path d="M0 0 C7.22445399 2.47695565 10.5317334 6.40214942 14.1796875 12.87890625 C15 15 15 15 14 18 C13.12601563 17.12988281 13.12601563 17.12988281 12.234375 16.2421875 C6.02361545 10.32438831 -0.15558368 6.43698653 -8 3 C-3.41201223 1.46728727 -1.22055258 2.97088818 3 5 C2.01 3.35 1.02 1.7 0 0 Z " fill="#8D6A5C" transform="translate(178,27)"/>
<path d="M0 0 C-2 1 -2 1 -4.25 0.9375 C-7.49727766 1.01130176 -9.9262825 1.96404336 -13 3 C-25.09106696 5.95884116 -37.65318845 5.19624471 -50 5 C-50 4.67 -50 4.34 -50 4 C-42.41 3.67 -34.82 3.34 -27 3 C-26.67 2.34 -26.34 1.68 -26 1 C-23.61157896 0.35077832 -21.30113257 -0.17125765 -18.875 -0.625 C-18.22273438 -0.7590625 -17.57046875 -0.893125 -16.8984375 -1.03125 C-5.17357066 -3.31108522 -5.17357066 -3.31108522 0 0 Z " fill="#D4A87D" transform="translate(164,192)"/>
<path d="M0 0 C3.25275457 1.34808039 4.60533508 2.4630901 6.140625 5.625 C6.48867187 6.33140625 6.83671875 7.0378125 7.1953125 7.765625 C7.54335937 8.50296875 7.89140625 9.2403125 8.25 10 C8.61351562 10.73734375 8.97703125 11.4746875 9.3515625 12.234375 C12 17.69055451 12 17.69055451 12 20 C11.01 19.67 10.02 19.34 9 19 C8.67 18.34 8.34 17.68 8 17 C8 20.63 8 24.26 8 28 C7.34 28 6.68 28 6 28 C4.33520455 23.60066101 3.73483393 19.81457178 3.5625 15.125 C3.23772134 9.44738781 2.36846455 5.14883599 0 0 Z " fill="#6B6059" transform="translate(131,129)"/>
<path d="M0 0 C0.66 0.33 1.32 0.66 2 1 C4.35528705 9.50017056 3.65994067 18.07012854 0 26 C-0.33 26 -0.66 26 -1 26 C-1.77747943 22.6181523 -2.08933758 19.63442381 -1.9140625 16.171875 C-1.84832031 14.84929687 -1.84832031 14.84929687 -1.78125 13.5 C-1.7296875 12.5925 -1.678125 11.685 -1.625 10.75 C-1.58117187 9.82703125 -1.53734375 8.9040625 -1.4921875 7.953125 C-1.13101708 1.13101708 -1.13101708 1.13101708 0 0 Z " fill="#643522" transform="translate(234,128)"/>
<path d="M0 0 C0 0.99 0 1.98 0 3 C-5.56654108 7.09304491 -11.25380094 8.27963525 -18.0625 8.25 C-19.24972656 8.25515625 -20.43695313 8.2603125 -21.66015625 8.265625 C-24.87488113 8.00995097 -27.1087086 7.37732596 -30 6 C-30 5.34 -30 4.68 -30 4 C-28.75605469 4.04640625 -27.51210937 4.0928125 -26.23046875 4.140625 C-16.74846245 4.38446163 -8.6854642 4.37200895 0 0 Z " fill="#090807" transform="translate(106,138)"/>
<path d="M0 0 C0.33 0 0.66 0 1 0 C1.08636719 0.75023437 1.17273438 1.50046875 1.26171875 2.2734375 C2.46014577 11.00326371 5.12876269 17.69314404 10 25 C5.48757639 23.09089771 1.58957518 20.0953491 -1.375 16.1875 C-3.0063488 10.47777919 -2.16399872 5.40999679 0 0 Z " fill="#7F5849" transform="translate(222,177)"/>
<path d="M0 0 C0.33 0 0.66 0 1 0 C1.02578125 0.70125 1.0515625 1.4025 1.078125 2.125 C1.55921404 10.1723076 3.58041021 15.37061532 8 22 C3.58125084 21.4950001 1.33267746 19.86980559 -2 17 C-2.33 17 -2.66 17 -3 17 C-3.40368295 10.54107286 -2.5915262 5.93891422 0 0 Z " fill="#441705" transform="translate(229,171)"/>
<path d="M0 0 C2.02734375 1.6953125 2.02734375 1.6953125 4 4 C4.26577845 8.88065875 2.60305948 13.72520706 -0.3125 17.625 C-3 20 -3 20 -5.8125 20.375 C-6.534375 20.25125 -7.25625 20.1275 -8 20 C-7.236875 19.29875 -6.47375 18.5975 -5.6875 17.875 C-1.47798591 12.9479551 -1.04344466 6.19280167 0 0 Z " fill="#471806" transform="translate(21,171)"/>
<path d="M0 0 C-0.33 0.66 -0.66 1.32 -1 2 C-2.93756292 2.4676876 -4.87612676 2.93174929 -6.8203125 3.37109375 C-9.59892065 4.17280685 -11.77110139 5.48856472 -14.21875 6.99609375 C-16.10535004 8.05937491 -17.95875092 8.78163734 -20 9.5 C-23.97588906 10.90553891 -27.39361505 12.82114243 -31 15 C-28.73516901 9.19796105 -23.25725493 6.80777803 -18 4 C-11.92600578 1.4437055 -6.63146242 -0.24488414 0 0 Z " fill="#390903" transform="translate(122,44)"/>
<path d="M0 0 C0.99 0 1.98 0 3 0 C2.814375 0.61875 2.62875 1.2375 2.4375 1.875 C1.76313824 4.04160178 1.76313824 4.04160178 3 6 C3.12419345 8.49253376 3.18515513 10.94490756 3.1875 13.4375 C3.19974609 14.11876953 3.21199219 14.80003906 3.22460938 15.50195312 C3.23555848 19.22829809 3.12005619 20.81991571 1 24 C-1.125 25.1875 -1.125 25.1875 -3 26 C-3 25.34 -3 24.68 -3 24 C-3.99 23.34 -4.98 22.68 -6 22 C-4.35 21.67 -2.7 21.34 -1 21 C-0.67 14.07 -0.34 7.14 0 0 Z " fill="#C98060" transform="translate(215,125)"/>
<path d="M0 0 C-3.23309795 2.59591806 -6.63749414 4.46624255 -10.3125 6.375 C-15.18068865 8.95711358 -19.63270746 11.64835689 -24 15 C-22.63752867 9.37980575 -18.52551023 6.22681627 -14 3 C-9.3696787 0.53798214 -5.28027576 -0.39602068 0 0 Z " fill="#491906" transform="translate(93,35)"/>
<path d="M0 0 C10.85714286 1.71428571 10.85714286 1.71428571 14 6 C13.34773437 6.03738281 12.69546875 6.07476562 12.0234375 6.11328125 C6.68377043 6.51493762 2.6795908 7.16761609 -2 10 C-1.34 6.7 -0.68 3.4 0 0 Z " fill="#481805" transform="translate(130,34)"/>
<path d="M0 0 C7.26 0 14.52 0 22 0 C22 0.66 22 1.32 22 2 C16.24463701 4.55793911 10.1878179 4.58603289 4 4 C1.6328125 2.984375 1.6328125 2.984375 0 2 C0 1.34 0 0.68 0 0 Z " fill="#C1644B" transform="translate(115,224)"/>
<path d="M0 0 C4.36217054 3.12362569 7.04715021 6.55897742 10 10.9375 C13.02903693 15.4005966 16.06421373 19.29614399 20 23 C15.20340958 22.57677143 12.28456938 20.336037 9 17 C7.17275015 14.54541005 5.63980674 11.9685642 4.125 9.3125 C3.7228125 8.63638672 3.320625 7.96027344 2.90625 7.26367188 C0 2.29635682 0 2.29635682 0 0 Z " fill="#4A1A06" transform="translate(184,75)"/>
<path d="M0 0 C6.56229217 0.27924648 11.05988845 2.69583565 16 7 C18.03512252 9.49302509 19.82123111 11.99210696 21 15 C20.67 15.66 20.34 16.32 20 17 C19.47792969 16.43152344 18.95585937 15.86304688 18.41796875 15.27734375 C13.40038016 10.01370879 8.34644738 6.02011696 2.08984375 2.3125 C1.40019531 1.879375 0.71054688 1.44625 0 1 C0 0.67 0 0.34 0 0 Z " fill="#491906" transform="translate(169,37)"/>
<path d="M0 0 C1.1577506 3.47325181 1.06866652 6.36067448 1 10 C1.87011719 9.80470703 1.87011719 9.80470703 2.7578125 9.60546875 C9.0912082 8.48719591 9.0912082 8.48719591 11.79296875 10.01171875 C13.23128763 11.30213851 14.61764879 12.6497965 16 14 C18.21735439 14.85279338 18.21735439 14.85279338 20 15 C20 15.99 20 16.98 20 18 C17.8125 18.375 17.8125 18.375 15 18 C13.86389252 16.44190974 12.72792829 14.88371389 11.59375 13.32421875 C9.32739863 11.44114739 7.71007557 11.70009405 4.8125 11.8125 C3.95269531 11.90144531 3.09289062 11.99039063 2.20703125 12.08203125 C1.47871094 12.05496094 0.75039062 12.02789062 0 12 C-2 9 -2 9 -1.6875 5.4375 C-1 2 -1 2 0 0 Z " fill="#8C4332" transform="translate(109,169)"/>
<path d="M0 0 C0.66 0.99 1.32 1.98 2 3 C5.55672179 4.2188121 5.55672179 4.2188121 9 5 C9 5.66 9 6.32 9 7 C4.428721 6.45144652 0.32564205 5.58255197 -4 4 C-3.7834375 4.54269531 -3.566875 5.08539063 -3.34375 5.64453125 C-3.0653125 6.35996094 -2.786875 7.07539063 -2.5 7.8125 C-2.08234375 8.87404297 -2.08234375 8.87404297 -1.65625 9.95703125 C-1 12 -1 12 -1 15 C-4 14 -4 14 -4.984375 12.29296875 C-5.23703125 11.59816406 -5.4896875 10.90335937 -5.75 10.1875 C-6.01296875 9.50042969 -6.2759375 8.81335938 -6.546875 8.10546875 C-7.07465156 5.65312767 -6.97751591 4.30733451 -6 2 C-2.9375 0.75 -2.9375 0.75 0 0 Z " fill="#020202" transform="translate(74,258)"/>
<path d="M0 0 C0.33 0 0.66 0 1 0 C1.15855469 0.76183594 1.31710938 1.52367187 1.48046875 2.30859375 C3.05920214 9.29514317 5.2191389 14.93430197 9 21 C10.35439668 23.70879335 10.06501451 26.00933268 10 29 C7.77487697 25.66231545 6.07278435 22.22534228 4.30859375 18.62890625 C3.49629661 16.99703767 2.65941544 15.37687262 1.78515625 13.77734375 C-0.43203326 9.68224995 -1.56999241 6.78793623 -1 2 C-0.67 1.34 -0.34 0.68 0 0 Z " fill="#330300" transform="translate(48,195)"/>
<path d="M0 0 C-0.62044189 0.57500244 -0.62044189 0.57500244 -1.25341797 1.16162109 C-3.12765225 2.89901154 -5.00133206 4.63699882 -6.875 6.375 C-7.52597656 6.97828125 -8.17695312 7.5815625 -8.84765625 8.203125 C-9.47285156 8.78320312 -10.09804687 9.36328125 -10.7421875 9.9609375 C-11.3182373 10.49509277 -11.89428711 11.02924805 -12.48779297 11.57958984 C-13.67891773 12.69840867 -14.84446251 13.84446251 -16 15 C-15.32826191 9.29022622 -12.65530651 5.49381319 -8.4375 1.6875 C-5.14095661 -0.59472235 -3.87832122 -1.29277374 0 0 Z " fill="#8C6A5C" transform="translate(84,50)"/>
<path d="M0 0 C0.33 0.66 0.66 1.32 1 2 C1.804375 1.979375 2.60875 1.95875 3.4375 1.9375 C6 2 6 2 7 3 C6.61577388 7.07279689 6.12055529 10.46574118 4 14 C3.34 14 2.68 14 2 14 C2.60990891 10.44219804 3.5783681 7.3171411 5 4 C4.31292969 4.2165625 3.62585938 4.433125 2.91796875 4.65625 C1.56638672 5.07390625 1.56638672 5.07390625 0.1875 5.5 C-1.15248047 5.91765625 -1.15248047 5.91765625 -2.51953125 6.34375 C-5 7 -5 7 -8 7 C-8 6.34 -8 5.68 -8 5 C-7.05125 4.731875 -6.1025 4.46375 -5.125 4.1875 C-1.74732727 3.25013412 -1.74732727 3.25013412 0 0 Z " fill="#020202" transform="translate(180,258)"/>
<path d="M0 0 C2.5 -0.3125 2.5 -0.3125 5 0 C5.66 0.66 6.32 1.32 7 2 C6.44444444 6.55555556 6.44444444 6.55555556 5 8 C3.33382885 8.04063832 1.66611905 8.042721 0 8 C-1.125 5.6875 -1.125 5.6875 -2 3 C-1.34 2.01 -0.68 1.02 0 0 Z " fill="#424242" transform="translate(204,116)"/>
<path d="M0 0 C2.375 -0.125 2.375 -0.125 5 0 C5.66 0.66 6.32 1.32 7 2 C6.625 4.625 6.625 4.625 6 7 C3.6875 7.6875 3.6875 7.6875 1 8 C-0.8125 6.5625 -0.8125 6.5625 -2 5 C-1.34 3.35 -0.68 1.7 0 0 Z " fill="#424242" transform="translate(44,116)"/>
<path d="M0 0 C10.44784914 1.88061285 20.08683434 7.01284309 28 14 C24.07074083 14 21.69378759 12.22474717 18.4375 10.25 C13.36033331 7.24057437 8.38570274 4.74150145 2.79296875 2.7890625 C1 2 1 2 0 0 Z " fill="#360603" transform="translate(136,43)"/>
<path d="M0 0 C0.66 0.33 1.32 0.66 2 1 C-1.33333333 7.66666667 -4.66666667 14.33333333 -8 21 C-8.99 20.67 -9.98 20.34 -11 20 C-7.37 13.4 -3.74 6.8 0 0 Z " fill="#7A7168" transform="translate(121,128)"/>
<path d="M0 0 C2.32602868 3.48904301 3.41117582 7.03390006 4.625 11 C4.85445313 11.72445313 5.08390625 12.44890625 5.3203125 13.1953125 C6.26068056 16.22911898 7 18.80543588 7 22 C8.65 22 10.3 22 12 22 C12 22.33 12 22.66 12 23 C10.02 23 8.04 23 6 23 C4.30493098 18.64125108 2.717181 14.27403441 1.3125 9.8125 C1.06113281 9.01457031 0.80976562 8.21664063 0.55078125 7.39453125 C-0.03348101 4.85444072 -0.09688613 2.59747104 0 0 Z " fill="#514E4E" transform="translate(90,257)"/>
<path d="M0 0 C2.82152715 3.52468376 4.98269186 7.32679708 7.1875 11.25 C7.55552734 11.8996875 7.92355469 12.549375 8.30273438 13.21875 C9.20428903 14.81110627 10.10248417 16.4053638 11 18 C10.01 18.33 9.02 18.66 8 19 C6.68417937 16.73103368 5.37224764 14.45996813 4.0625 12.1875 C3.68931641 11.54490234 3.31613281 10.90230469 2.93164062 10.24023438 C1.36533365 7.51683576 -0.00369374 4.98891878 -1 2 C-0.67 1.34 -0.34 0.68 0 0 Z " fill="#16110C" transform="translate(178,73)"/>
<path d="M0 0 C2.99228665 5.00701352 2.49765559 10.34547855 2 16 C1.240151 18.88127714 0.25476526 21.28134195 -1 24 C-2.13163417 20.60509748 -1.75468953 18.45776053 -1 15 C-0.78118981 12.3931873 -0.58987147 9.79779811 -0.4375 7.1875 C-0.39431641 6.49462891 -0.35113281 5.80175781 -0.30664062 5.08789062 C-0.20138547 3.39211314 -0.10027137 1.69607948 0 0 Z " fill="#845F50" transform="translate(235,130)"/>
<path d="M0 0 C1 2 1 2 0.125 4.75 C-1.72935663 10.6263058 -1.67794727 16.88947328 -2 23 C-4.7241562 20.2758438 -4.3308802 18.6781266 -4.375 14.875 C-4.30744945 8.78869549 -3.21185959 5.11890122 0 0 Z " fill="#835E4F" transform="translate(18,136)"/>
<path d="M0 0 C0.33 1.98 0.66 3.96 1 6 C-1.64 6.99 -4.28 7.98 -7 9 C-7 5 -7 5 -4.625 2.25 C-2 0 -2 0 0 0 Z " fill="#201F22" transform="translate(106,266)"/>
<path d="M0 0 C2.46875142 2.46875142 2.54461856 3.90851681 3.125 7.3125 C3.29257813 8.25738281 3.46015625 9.20226562 3.6328125 10.17578125 C3.97714202 12.82418807 4.06799797 15.33350826 4 18 C3.34 18 2.68 18 2 18 C-0.61281488 12.12116651 -0.18328202 6.29268272 0 0 Z " fill="#8A4231" transform="translate(135,139)"/>
<path d="M0 0 C2.60578866 0.08695958 5.2081279 0.19381408 7.8125 0.3125 C8.55048828 0.33505859 9.28847656 0.35761719 10.04882812 0.38085938 C15.54974762 0.6546608 15.54974762 0.6546608 18.01171875 2.54296875 C18.50091797 3.26419922 18.50091797 3.26419922 19 4 C16.77110504 4.05428973 14.54182529 4.09292338 12.3125 4.125 C10.45044922 4.15980469 10.45044922 4.15980469 8.55078125 4.1953125 C5.18762143 4.01032021 3.0014413 3.45767895 0 2 C0 1.34 0 0.68 0 0 Z " fill="#100E0C" transform="translate(76,142)"/>
<path d="M0 0 C0.33 0.66 0.66 1.32 1 2 C0.70351563 2.57234375 0.40703125 3.1446875 0.1015625 3.734375 C-1.29880632 6.61456619 -1.41722918 9.06418083 -1.625 12.25 C-1.69976562 13.32765625 -1.77453125 14.4053125 -1.8515625 15.515625 C-1.90054688 16.33546875 -1.94953125 17.1553125 -2 18 C-4.44358218 15.55641782 -4.73949538 13.55010884 -5.109375 10.171875 C-4.90942557 6.20145066 -2.80396195 2.80396195 0 0 Z " fill="#7E5747" transform="translate(37,188)"/>
<path d="M0 0 C1.32 0.66 2.64 1.32 4 2 C3.01 2.66 2.02 3.32 1 4 C1.33 4.99 1.66 5.98 2 7 C0.35 8.32 -1.3 9.64 -3 11 C-4 10 -4 10 -4.3125 7.75 C-3.90645326 4.17678871 -2.38632549 2.6100435 0 0 Z " fill="#33302E" transform="translate(144,120)"/>
<path d="M0 0 C2.79387762 0.61620855 5.58480926 1.24249695 8.375 1.875 C9.1690625 2.04902344 9.963125 2.22304687 10.78125 2.40234375 C11.54179688 2.57636719 12.30234375 2.75039062 13.0859375 2.9296875 C13.7876709 3.08679199 14.4894043 3.24389648 15.21240234 3.40576172 C17 4 17 4 19 6 C12.9040042 6.33250886 7.53060761 5.78825238 2 3 C1.34 2.01 0.68 1.02 0 0 Z " fill="#938888" transform="translate(99,200)"/>
<path d="M0 0 C0.721875 0.12375 1.44375 0.2475 2.1875 0.375 C1.5275 2.025 0.8675 3.675 0.1875 5.375 C-2.4525 5.705 -5.0925 6.035 -7.8125 6.375 C-3.50480769 0.46730769 -3.50480769 0.46730769 0 0 Z " fill="#E7B487" transform="translate(136.8125,179.625)"/>
<path d="M0 0 C0.66 0 1.32 0 2 0 C3.11445498 2.22890995 3.16480286 3.53055106 3.1875 6 C3.20167969 6.70125 3.21585938 7.4025 3.23046875 8.125 C3 10 3 10 1 12 C-4.45454545 11.54545455 -4.45454545 11.54545455 -7 9 C-4.69 9 -2.38 9 0 9 C0 6.03 0 3.06 0 0 Z " fill="#8D4634" transform="translate(142,169)"/>
<path d="M0 0 C4.66861981 1.60483806 9.09258167 3.97490194 13 7 C13 7.66 13 8.32 13 9 C9.00987629 8.44010697 6.4744948 7.24330232 3.1875 4.9375 C2.39730469 4.38964844 1.60710937 3.84179688 0.79296875 3.27734375 C0.20128906 2.85582031 -0.39039062 2.43429688 -1 2 C-0.67 1.34 -0.34 0.68 0 0 Z " fill="#0D0907" transform="translate(126,49)"/>
<path d="M0 0 C0.33 0.66 0.66 1.32 1 2 C0.06981474 3.46300982 -0.86944027 4.92025579 -1.8125 6.375 C-2.33457031 7.18710938 -2.85664062 7.99921875 -3.39453125 8.8359375 C-5 11 -5 11 -8 13 C-9.32 13 -10.64 13 -12 13 C-12 12.34 -12 11.68 -12 11 C-10.948125 10.484375 -9.89625 9.96875 -8.8125 9.4375 C-4.57856093 7.05375788 -2.579131 4.06408521 0 0 Z " fill="#866254" transform="translate(60,79)"/>
<path d="M0 0 C4.88007285 0.44364299 6.69772053 1.47756856 10 5 C12.1381966 5.7872678 12.1381966 5.7872678 14 6 C14 6.99 14 7.98 14 9 C11.875 9.4375 11.875 9.4375 9 9 C7.27785599 7.35965783 5.86953985 5.61782802 4.4296875 3.7265625 C2.92760276 1.74439829 2.92760276 1.74439829 0 0 Z " fill="#7F3A2A" transform="translate(115,178)"/>
<path d="M0 0 C2.77579761 2.77579761 2.86061387 5.30306937 3.625 9.125 C3.88539063 10.40632813 4.14578125 11.68765625 4.4140625 13.0078125 C4.60742188 13.99523437 4.80078125 14.98265625 5 16 C4.34 16 3.68 16 3 16 C2.67 14.68 2.34 13.36 2 12 C0.35 11.67 -1.3 11.34 -3 11 C-1.68 10.67 -0.36 10.34 1 10 C0.67 9.01 0.34 8.02 0 7 C-0.03954234 4.66700175 -0.04401732 2.33291811 0 0 Z " fill="#310500" transform="translate(212,100)"/>
<path d="M0 0 C3.92734211 3.77024843 7.44406161 7.88470051 11 12 C10.01 12.33 9.02 12.66 8 13 C4.15383526 8.91193811 1.36410449 5.59282842 0 0 Z " fill="#866153" transform="translate(194,80)"/>
<path d="M0 0 C0 0.99 0 1.98 0 3 C-5.445 4.485 -5.445 4.485 -11 6 C-11 5.01 -11 4.02 -11 3 C-9.73160474 2.49384702 -8.46016898 1.99530901 -7.1875 1.5 C-6.12595703 1.08234375 -6.12595703 1.08234375 -5.04296875 0.65625 C-3 0 -3 0 0 0 Z " fill="#1C140F" transform="translate(100,61)"/>
<path d="M0 0 C7.26 0 14.52 0 22 0 C21.67 0.66 21.34 1.32 21 2 C15.39 1.67 9.78 1.34 4 1 C4 1.66 4 2.32 4 3 C2.68 2.67 1.36 2.34 0 2 C0 1.34 0 0.68 0 0 Z " fill="#D58261" transform="translate(115,224)"/>
<path d="M0 0 C0.33 0 0.66 0 1 0 C1.12117188 0.58007812 1.24234375 1.16015625 1.3671875 1.7578125 C2.33735474 6.28028442 3.43397783 10.63750966 5 15 C-0.95808104 9.19469027 -0.95808104 9.19469027 -1.125 4.4375 C-1 1 -1 1 0 0 Z " fill="#7F5848" transform="translate(23,205)"/>
<path d="M0 0 C2.6875 -0.375 2.6875 -0.375 6 0 C8.06398076 1.823983 9.39041053 3.72763839 11 6 C9.02 6 7.04 6 5 6 C5.33 5.34 5.66 4.68 6 4 C4.02 3.34 2.04 2.68 0 2 C0 1.34 0 0.68 0 0 Z " fill="#C98F6B" transform="translate(113,180)"/>
<path d="M0 0 C2.9156164 3.54039134 5.50127818 7.1626772 8 11 C7.01 11.495 7.01 11.495 6 12 C2.20444669 9.46963112 1.5544614 7.21925236 0 3 C0 2.01 0 1.02 0 0 Z " fill="#3D1403" transform="translate(104,235)"/>
<path d="M0 0 C0.99 1.485 0.99 1.485 2 3 C2.43699219 3.65097656 2.87398438 4.30195313 3.32421875 4.97265625 C3.99904297 6.00712891 3.99904297 6.00712891 4.6875 7.0625 C5.14511719 7.75472656 5.60273437 8.44695312 6.07421875 9.16015625 C6.37972656 9.76730469 6.68523437 10.37445313 7 11 C6.67 11.66 6.34 12.32 6 13 C3 11.5625 3 11.5625 0 9 C-0.53698855 5.94127109 -0.35474551 3.07446111 0 0 Z " fill="#3D1404" transform="translate(96,228)"/>
<path d="M0 0 C1.98 0.99 3.96 1.98 6 3 C6.33 2.34 6.66 1.68 7 1 C7.66 2.32 8.32 3.64 9 5 C6.36 5 3.72 5 1 5 C0.67 3.35 0.34 1.7 0 0 Z " fill="#242326" transform="translate(117,276)"/>
<path d="M0 0 C0.33 0 0.66 0 1 0 C1.59720137 5.82271337 -0.471757 9.9209404 -3 15 C-4.28497537 11.14507389 -3.4052209 9.59653164 -2.0625 5.8125 C-1.68222656 4.72582031 -1.30195313 3.63914063 -0.91015625 2.51953125 C-0.60980469 1.68808594 -0.30945313 0.85664063 0 0 Z " fill="#441A09" transform="translate(173,210)"/>
<path d="M0 0 C0.66 0.33 1.32 0.66 2 1 C0.35 4.63 -1.3 8.26 -3 12 C-3.33 12 -3.66 12 -4 12 C-3.5317879 7.22423661 -2.75668002 3.95523655 0 0 Z " fill="#6D6359" transform="translate(121,128)"/>
<path d="M0 0 C1.98 0 3.96 0 6 0 C6 0.66 6 1.32 6 2 C5.01 2.33 4.02 2.66 3 3 C1.77479736 6.00847418 1.77479736 6.00847418 1 9 C0.67 9 0.34 9 0 9 C0 6.03 0 3.06 0 0 Z " fill="#383838" transform="translate(41,114)"/>
<path d="M0 0 C0.33 0 0.66 0 1 0 C1.33 2.64 1.66 5.28 2 8 C0.35 8.66 -1.3 9.32 -3 10 C-2.01 6.7 -1.02 3.4 0 0 Z " fill="#3C1404" transform="translate(157,228)"/>
<path d="M0 0 C0.33 0 0.66 0 1 0 C1.33 3.63 1.66 7.26 2 11 C1.34 11 0.68 11 0 11 C-2.21538462 4.6 -2.21538462 4.6 -1.125 1.5625 C-0.75375 1.046875 -0.3825 0.53125 0 0 Z " fill="#340601" transform="translate(196,201)"/>
<path d="M0 0 C1.875 0.125 1.875 0.125 4 1 C5.25 4.0625 5.25 4.0625 6 7 C5.01 6.67 4.02 6.34 3 6 C2.67 5.34 2.34 4.68 2 4 C1.01 4.495 1.01 4.495 0 5 C0 3.35 0 1.7 0 0 Z " fill="#857164" transform="translate(137,142)"/>
<path d="M0 0 C0.33 0 0.66 0 1 0 C1 1.65 1 3.3 1 5 C-0.65 5.66 -2.3 6.32 -4 7 C-4 6.34 -4 5.68 -4 5 C-4.99 4.34 -5.98 3.68 -7 3 C-5.5459375 2.5359375 -5.5459375 2.5359375 -4.0625 2.0625 C-1.15934208 1.30476658 -1.15934208 1.30476658 0 0 Z " fill="#B77154" transform="translate(216,144)"/>
<path d="M0 0 C1.98 0 3.96 0 6 0 C5.34 1.32 4.68 2.64 4 4 C2.68 3.67 1.36 3.34 0 3 C0 2.01 0 1.02 0 0 Z " fill="#323232" transform="translate(159,126)"/>
<path d="M0 0 C1.98 0 3.96 0 6 0 C5.67 1.32 5.34 2.64 5 4 C3.0625 3.6875 3.0625 3.6875 1 3 C0.67 2.01 0.34 1.02 0 0 Z " fill="#323232" transform="translate(84,126)"/>
<path d="M0 0 C0.33 0.66 0.66 1.32 1 2 C1.66 2 2.32 2 3 2 C3 4.64 3 7.28 3 10 C-0.00617269 6.99382731 0.40414684 4.17618402 0 0 Z " fill="#795040" transform="translate(32,196)"/>
<path d="M0 0 C0.66 0.66 1.32 1.32 2 2 C0.35 3.98 -1.3 5.96 -3 8 C-3.99 7.67 -4.98 7.34 -6 7 C-4.02 4.69 -2.04 2.38 0 0 Z " fill="#5B2E1C" transform="translate(54,103)"/>
<path d="M0 0 C0.66 0.33 1.32 0.66 2 1 C1.67 2.65 1.34 4.3 1 6 C-0.32 6.33 -1.64 6.66 -3 7 C-2.01 4.69 -1.02 2.38 0 0 Z " fill="#17130F" transform="translate(133,274)"/>
<path d="M0 0 C2.64 0 5.28 0 8 0 C7.01 1.485 7.01 1.485 6 3 C3.5625 2.625 3.5625 2.625 1 2 C0.67 1.34 0.34 0.68 0 0 Z " fill="#CD785A" transform="translate(122,181)"/>
<path d="M0 0 C0.763125 0.0825 1.52625 0.165 2.3125 0.25 C2.3125 0.91 2.3125 1.57 2.3125 2.25 C-0.3275 2.91 -2.9675 3.57 -5.6875 4.25 C-3.34903846 0.31153846 -3.34903846 0.31153846 0 0 Z " fill="#C98D6A" transform="translate(136.6875,179.75)"/>
</svg>
